<?xml version="1.0" encoding="iso-8859-1"?>
<!-- Generator: Adobe Illustrator 19.2.1, SVG Export Plug-In . SVG Version: 6.00 Build 0)  -->
<svg version="1.1" xmlns="http://www.w3.org/2000/svg" xmlns:xlink="http://www.w3.org/1999/xlink" x="0px" y="0px"
	 viewBox="0 0 16 16" style="enable-background:new 0 0 16 16;" xml:space="preserve">
<g id="Layer_2">
	<path style="fill:#95CC29;" d="M12.499,7c-1.933,0-3.5,1.567-3.5,3.5c0,1.394,0.821,2.587,2,3.15v0.85c0,0.275,0.225,0.5,0.5,0.5
		c0.275,0,0.5-0.225,0.5-0.5c0,0.275,0.225,0.5,0.5,0.5c0.275,0,0.5-0.225,0.5-0.5c0,0.275,0.225,0.5,0.5,0.5
		c0.275,0,0.5-0.225,0.5-0.5v-0.85c1.179-0.563,2-1.756,2-3.15C15.999,8.567,14.432,7,12.499,7z M10.999,12c-0.552,0-1-0.448-1-1
		c0-0.552,0.448-1,1-1c0.552,0,1,0.448,1,1C11.999,11.552,11.552,12,10.999,12z M13.999,12c-0.552,0-1-0.448-1-1
		c0-0.552,0.448-1,1-1c0.552,0,1,0.448,1,1C14.999,11.552,14.552,12,13.999,12z"/>
	<g>
		<path style="fill:none;stroke:#666666;stroke-miterlimit:10;" d="M8.836,13.113l-0.13,0.13c-0.195,0.195-0.451,0.293-0.707,0.293
			c-0.256,0-0.512-0.098-0.707-0.293L1.645,7.595C0.369,6.32,0.171,4.06,1.359,2.702c0.831-0.95,2.075-1.381,3.347-1.133
			c0.705,0.137,1.338,0.526,1.846,1.034L7.999,4.05l1.447-1.448c0.508-0.508,1.141-0.897,1.846-1.034
			c1.272-0.247,2.516,0.183,3.347,1.133c0.955,1.092,1.014,2.766,0.338,4.044"/>
	</g>
	<rect style="fill:none;" width="16" height="16"/>
</g>
<g id="Layer_1">
</g>
</svg>
