<?xml version="1.0" encoding="iso-8859-1"?>
<!-- Generator: Adobe Illustrator 19.2.1, SVG Export Plug-In . SVG Version: 6.00 Build 0)  -->
<svg version="1.1" xmlns="http://www.w3.org/2000/svg" xmlns:xlink="http://www.w3.org/1999/xlink" x="0px" y="0px"
	 viewBox="0 0 16.001 16" style="enable-background:new 0 0 16.001 16;" xml:space="preserve">
<g id="Layer_11">
	<polygon style="fill:#95CC29;" points="7,16 4,12 6,12 6,8 8,8 8,12 10,12 	"/>
	<g>
		<path style="fill:none;stroke:#666666;stroke-linejoin:round;stroke-miterlimit:10;" d="M10,11.485c0,0,2.174,0.033,2.5,0
			c1.692-0.245,3-1.727,3-3.485c0-1.93-1.57-3.5-3.5-3.5c-0.187,0-0.366,0.027-0.545,0.055C11.228,2.285,9.329,0.5,7,0.5
			C4.519,0.5,2.5,2.519,2.5,5c0,0.537,0.11,1.044,0.283,1.522C1.508,6.634,0.5,7.696,0.5,9c0,1.378,1.122,2.5,2.5,2.5
			c0,0-0.171,0.003,0.999,0.005"/>
		<path style="fill:none;stroke:#666666;stroke-linecap:round;stroke-linejoin:round;stroke-miterlimit:10;" d="M9.526,5.526
			C10.16,4.893,11.035,4.5,12,4.5"/>
		<path style="fill:none;stroke:#666666;stroke-linecap:round;stroke-linejoin:round;stroke-miterlimit:10;" d="M3,6.5
			c0.689,0,1.314,0.28,1.767,0.733"/>
	</g>
	<rect x="0.001" style="fill:none;" width="16" height="16"/>
</g>
<g id="Layer_1">
</g>
</svg>
