<?xml version="1.0" encoding="iso-8859-1"?>
<!-- Generator: Adobe Illustrator 19.2.1, SVG Export Plug-In . SVG Version: 6.00 Build 0)  -->
<svg version="1.1" xmlns="http://www.w3.org/2000/svg" xmlns:xlink="http://www.w3.org/1999/xlink" x="0px" y="0px"
	 viewBox="0 0 16.001 16" style="enable-background:new 0 0 16.001 16;" xml:space="preserve">
<g id="Layer_13">
	<path style="fill:#95CC29;" d="M12.5,9C10.567,9,9,10.567,9,12.5s1.567,3.5,3.5,3.5s3.5-1.567,3.5-3.5S14.433,9,12.5,9z M13,14.5
		c0,0.275-0.225,0.5-0.5,0.5c-0.275,0-0.5-0.225-0.5-0.5v-2c0-0.275,0.225-0.5,0.5-0.5c0.275,0,0.5,0.225,0.5,0.5V14.5z M12.5,11
		c-0.276,0-0.5-0.224-0.5-0.5c0-0.276,0.224-0.5,0.5-0.5c0.276,0,0.5,0.224,0.5,0.5C13,10.776,12.776,11,12.5,11z"/>
	<g>
		<polyline style="fill:none;stroke:#666666;stroke-linejoin:round;stroke-miterlimit:10;" points="8,14.5 0.5,14.5 0.5,3.5 
			15.5,3.5 15.5,9 		"/>
		<polygon style="fill:none;stroke:#666666;stroke-linecap:round;stroke-linejoin:round;stroke-miterlimit:10;" points="12.5,0.5 
			15.5,3.5 0.5,3.5 3.5,0.5 		"/>
		
			<line style="fill:none;stroke:#666666;stroke-linecap:round;stroke-linejoin:round;stroke-miterlimit:10;" x1="8.5" y1="1" x2="8.5" y2="3"/>
	</g>
	<rect x="0.001" style="fill:none;" width="16" height="16"/>
</g>
<g id="Layer_1">
</g>
</svg>
