<?xml version="1.0" encoding="iso-8859-1"?>
<!-- Generator: Adobe Illustrator 19.2.1, SVG Export Plug-In . SVG Version: 6.00 Build 0)  -->
<svg version="1.1" xmlns="http://www.w3.org/2000/svg" xmlns:xlink="http://www.w3.org/1999/xlink" x="0px" y="0px"
	 viewBox="0 0 16.001 16" style="enable-background:new 0 0 16.001 16;" xml:space="preserve">
<g id="Layer_15">
	<path style="fill:#95CC29;" d="M15.707,14.293l-1.14-1.14C14.834,12.659,15,12.101,15,11.5C15,9.567,13.433,8,11.5,8
		C9.567,8,8,9.567,8,11.5c0,1.933,1.567,3.5,3.5,3.5c0.601,0,1.159-0.166,1.653-0.433l1.14,1.14c0.391,0.391,1.024,0.391,1.414,0
		C16.098,15.317,16.098,14.683,15.707,14.293z M11.5,14C10.122,14,9,12.879,9,11.5S10.122,9,11.5,9s2.5,1.121,2.5,2.5
		S12.878,14,11.5,14z"/>
	<g>
		
			<circle style="fill:none;stroke:#666666;stroke-linecap:round;stroke-linejoin:round;stroke-miterlimit:10;" cx="6" cy="14" r="1.5"/>
		<polyline style="fill:none;stroke:#666666;stroke-linejoin:round;stroke-miterlimit:10;" points="7,10.5 4.5,10.5 3.5,4.5 
			15.5,4.5 14.836,8.483 		"/>
		<path style="fill:none;stroke:#666666;stroke-linejoin:round;stroke-miterlimit:10;" d="M0,0.5c0,0,1.458,0,2.85,0
			c0.413,2.477,1.506,9.037,2.001,12.004C5.526,12.504,6.188,12.503,7,12.502"/>
	</g>
	<rect x="0.001" style="fill:none;" width="16" height="16"/>
</g>
<g id="Layer_1">
</g>
</svg>
