<?xml version="1.0" encoding="iso-8859-1"?>
<!-- Generator: Adobe Illustrator 19.2.1, SVG Export Plug-In . SVG Version: 6.00 Build 0)  -->
<svg version="1.1" xmlns="http://www.w3.org/2000/svg" xmlns:xlink="http://www.w3.org/1999/xlink" x="0px" y="0px"
	 viewBox="0 0 16 16" style="enable-background:new 0 0 16 16;" xml:space="preserve">
<g id="Layer_17">
	<path style="fill:#95CC29;" d="M6.999,8.5C7,7.673,7.673,7,8.499,7c0.827,0,1.5,0.673,1.5,1.5c-0.001,1.7-2,1.183-2,3
		c0,0.276,0.224,0.5,0.5,0.5c0.276,0,0.5-0.224,0.5-0.5c0-0.303,0.182-0.576,0.461-0.692C10.373,10.427,11,9.528,10.999,8.5
		c0-0.688-0.281-1.316-0.733-1.767C9.815,6.281,9.188,6,8.499,6c-1.38,0-2.5,1.123-2.5,2.5c0,0.276,0.224,0.5,0.5,0.5
		C6.775,9,6.999,8.776,6.999,8.5z"/>
	<circle style="fill:#95CC29;" cx="8.499" cy="13.5" r="0.5"/>
	<g>
		<path style="fill:none;stroke:#666666;stroke-linejoin:round;stroke-miterlimit:10;" d="M4.499,15.5c-0.552,0-1-0.448-1-1V5.914
			c0-0.265,0.105-0.52,0.293-0.707L8.499,0.5l4.707,4.707c0.188,0.188,0.293,0.442,0.293,0.707V14.5c0,0.552-0.448,1-1,1H4.499z"/>
		<circle style="fill:#666666;" cx="8.499" cy="3.5" r="0.5"/>
	</g>
	<rect style="fill:none;" width="16" height="16"/>
</g>
<g id="Layer_1">
</g>
</svg>
