<?xml version="1.0" encoding="iso-8859-1"?>
<!-- Generator: Adobe Illustrator 19.2.1, SVG Export Plug-In . SVG Version: 6.00 Build 0)  -->
<svg version="1.1" xmlns="http://www.w3.org/2000/svg" xmlns:xlink="http://www.w3.org/1999/xlink" x="0px" y="0px"
	 viewBox="0 0 16.001 16" style="enable-background:new 0 0 16.001 16;" xml:space="preserve">
<g id="Layer_18">
	<path style="fill:#95CC29;" d="M13.146,11.854l1,1C14.24,12.947,14.368,13,14.5,13c0.132,0,0.26-0.053,0.354-0.146l1-1
		c0.195-0.195,0.195-0.512,0-0.707c-0.195-0.195-0.512-0.195-0.707,0L14.5,11.793l-0.646-0.646c-0.195-0.195-0.512-0.195-0.707,0
		C12.951,11.342,12.951,11.658,13.146,11.854L13.146,11.854z"/>
	<path style="fill:#95CC29;" d="M13.12,14.12C12.573,14.666,11.826,15,11,15c-0.828,0-1.575-0.336-2.12-0.88
		C8.336,13.575,8,12.828,8,12c0-0.828,0.336-1.575,0.88-2.12C9.425,9.336,10.172,9,11,9c0.828,0,1.575,0.336,2.12,0.88
		C13.664,10.425,14,11.172,14,12c0,0.133-0.009,0.268-0.027,0.404l0.992,0.13C14.989,12.354,15,12.176,15,12
		c0-1.102-0.45-2.105-1.173-2.827C13.105,8.45,12.102,8,11,8C9.898,8,8.895,8.45,8.173,9.173C7.45,9.895,7,10.898,7,12
		c0,1.102,0.45,2.105,1.173,2.827C8.895,15.55,9.898,16,11,16c1.099,0,2.103-0.447,2.827-1.173L13.12,14.12L13.12,14.12z"/>
	<g>
		<g>
			<path style="fill:none;stroke:#666666;stroke-miterlimit:10;" d="M7,15.5H1.5c-0.552,0-1-0.448-1-1v-13c0-0.552,0.448-1,1-1
				h6.586c0.265,0,0.519,0.105,0.707,0.293l3.414,3.414C12.395,4.395,12.5,4.649,12.5,4.914V7"/>
			<path style="fill:none;stroke:#666666;stroke-linecap:round;stroke-linejoin:round;stroke-miterlimit:10;" d="M12.207,4.207
				L8.569,0.569C8.519,0.589,8.549,0.577,8.5,0.597V3.5c0,0.552,0.448,1,1,1h2.586C12.144,4.359,12.149,4.348,12.207,4.207z"/>
		</g>
	</g>
	<rect x="0.001" style="fill:none;" width="16" height="16"/>
</g>
<g id="Layer_1">
</g>
</svg>
