<?xml version="1.0" encoding="iso-8859-1"?>
<!-- Generator: Adobe Illustrator 19.2.1, SVG Export Plug-In . SVG Version: 6.00 Build 0)  -->
<svg version="1.1" xmlns="http://www.w3.org/2000/svg" xmlns:xlink="http://www.w3.org/1999/xlink" x="0px" y="0px"
	 viewBox="0 0 16.001 16" style="enable-background:new 0 0 16.001 16;" xml:space="preserve">
<g id="Layer_19">
	<path style="fill:#95CC29;" d="M15.601,9.019l-3.465-1h-0.272l-3.465,1C8.186,9.081,8.04,9.276,8.04,9.5
		c0,2.105-0.542,5.222,3.824,6.481h0.272c4.365-1.258,3.824-4.382,3.824-6.481C15.96,9.276,15.814,9.081,15.601,9.019z M12,14.971
		L12,14.971c-3.401-1.053-2.97-3.251-2.97-5.094L12,9.02V14.971z"/>
	<g>
		<g>
			<path style="fill:none;stroke:#666666;stroke-miterlimit:10;" d="M13.5,7V2c0-0.828-2.91-1.5-6.5-1.5S0.5,1.172,0.5,2v12
				c0,0.828,2.91,1.5,6.5,1.5c0.7,0,1.374-0.026,2.006-0.073"/>
			<path style="fill:none;stroke:#666666;stroke-linecap:round;stroke-linejoin:round;stroke-miterlimit:10;" d="M13.5,6
				c0,0.828-2.91,1.5-6.5,1.5S0.5,6.828,0.5,6"/>
			<path style="fill:none;stroke:#666666;stroke-linecap:round;stroke-linejoin:round;stroke-miterlimit:10;" d="M13.5,2
				c0,0.828-2.91,1.5-6.5,1.5S0.5,2.828,0.5,2"/>
			<path style="fill:none;stroke:#666666;stroke-miterlimit:10;" d="M7,11.5c-3.59,0-6.5-0.672-6.5-1.5"/>
		</g>
	</g>
	<rect x="0.001" style="fill:none;" width="16" height="16"/>
</g>
<g id="Layer_1">
</g>
</svg>
