<?xml version="1.0" encoding="iso-8859-1"?>
<!-- Generator: Adobe Illustrator 19.2.1, SVG Export Plug-In . SVG Version: 6.00 Build 0)  -->
<svg version="1.1" xmlns="http://www.w3.org/2000/svg" xmlns:xlink="http://www.w3.org/1999/xlink" x="0px" y="0px"
	 viewBox="0 0 16.067 16.067" style="enable-background:new 0 0 16.067 16.067;" xml:space="preserve">
<g id="Layer_20">
	<path style="fill:#95CC29;" d="M9,1c1.655,0,3.152,0.672,4.24,1.76C14.328,3.848,15,5.345,15,7c0,0.276,0.224,0.5,0.5,0.5
		C15.776,7.5,16,7.276,16,7c-0.001-3.861-3.139-6.999-7-7C8.724,0,8.5,0.224,8.5,0.5C8.5,0.776,8.724,1,9,1L9,1z"/>
	<path style="fill:#95CC29;" d="M9,3c1.104,0,2.101,0.448,2.827,1.173C12.552,4.899,13,5.896,13,7c0,0.276,0.224,0.5,0.5,0.5
		C13.776,7.5,14,7.276,14,7c-0.001-2.759-2.241-4.999-5-5C8.724,2,8.5,2.224,8.5,2.5C8.5,2.776,8.724,3,9,3L9,3z"/>
	<path style="fill:#95CC29;" d="M9,5c1.101,0.002,1.998,0.898,2,2c0,0.276,0.224,0.5,0.5,0.5C11.776,7.5,12,7.276,12,7
		c-0.001-1.656-1.345-2.999-3-3C8.724,4,8.5,4.224,8.5,4.5C8.5,4.776,8.724,5,9,5L9,5z"/>
	<g>
		<g>
			<path style="fill:none;stroke:#666666;stroke-miterlimit:10;" d="M5.375,10.692c2.236,2.236,6.249,6.479,8.485,4.243l1.414-1.414
				c0.391-0.391,0.391-1.024,0-1.414l-2.828-2.828c-0.391-0.391-1.024-0.391-1.414,0l-0.707,0.707c-0.391,0.391-1.024,0.391-1.414,0
				L6.082,7.157c-0.391-0.391-0.391-1.024,0-1.414l0.707-0.707c0.391-0.391,0.391-1.024,0-1.414L3.961,0.793
				c-0.391-0.391-1.024-0.391-1.414,0L1.132,2.207C-1.104,4.443,3.139,8.456,5.375,10.692z"/>
			<line style="fill:none;stroke:#666666;stroke-miterlimit:10;" x1="1.839" y1="1.5" x2="6.082" y2="5.743"/>
			<line style="fill:none;stroke:#666666;stroke-miterlimit:10;" x1="10.325" y1="9.985" x2="14.567" y2="14.228"/>
		</g>
	</g>
	<rect x="0.001" y="0" style="fill:none;" width="16" height="16"/>
</g>
<g id="Layer_1">
</g>
</svg>
