<?xml version="1.0" encoding="iso-8859-1"?>
<!-- Generator: Adobe Illustrator 19.2.1, SVG Export Plug-In . SVG Version: 6.00 Build 0)  -->
<svg version="1.1" xmlns="http://www.w3.org/2000/svg" xmlns:xlink="http://www.w3.org/1999/xlink" x="0px" y="0px"
	 viewBox="0 0 16.001 16" style="enable-background:new 0 0 16.001 16;" xml:space="preserve">
<g id="Layer_3">
	<path style="fill:#95CC29;" d="M12.5,9C10.567,9,9,10.567,9,12.5s1.567,3.5,3.5,3.5s3.5-1.567,3.5-3.5S14.433,9,12.5,9z M14.5,13
		h-2c-0.132,0-0.26-0.053-0.354-0.146C12.053,12.76,12,12.632,12,12.5v-2c0-0.276,0.224-0.5,0.5-0.5c0.276,0,0.5,0.224,0.5,0.5V12
		h1.5c0.276,0,0.5,0.224,0.5,0.5C15,12.776,14.776,13,14.5,13z"/>
	<g>
		<path style="fill:none;stroke:#666666;stroke-miterlimit:10;" d="M5.673,2.7C5.563,2.491,5.5,2.253,5.5,2
			c0-0.827,0.673-1.5,1.5-1.5S8.5,1.173,8.5,2c0,0.254-0.063,0.493-0.175,0.703"/>
		<path style="fill:none;stroke:#666666;stroke-linejoin:round;stroke-miterlimit:10;" d="M8.999,14.5H0.5v-0.297
			c1.292-1.366,2-3.144,2-5.032V7c0-2.481,2.019-4.5,4.5-4.5c0.146,0,0.294,0.007,0.443,0.021C9.718,2.738,11.5,4.8,11.5,7.215V8"/>
		<path style="fill:none;stroke:#666666;stroke-miterlimit:10;" d="M5.001,14.5c0.457,0.607,1.183,1,1.999,1
			c0.641,0,1.226-0.243,1.669-0.641"/>
	</g>
	<rect x="0.001" style="fill:none;" width="16" height="16"/>
</g>
<g id="Layer_1">
</g>
</svg>
