<?xml version="1.0" encoding="iso-8859-1"?>
<!-- Generator: Adobe Illustrator 19.2.1, SVG Export Plug-In . SVG Version: 6.00 Build 0)  -->
<svg version="1.1" xmlns="http://www.w3.org/2000/svg" xmlns:xlink="http://www.w3.org/1999/xlink" x="0px" y="0px"
	 viewBox="0 0 16.001 16" style="enable-background:new 0 0 16.001 16;" xml:space="preserve">
<g id="Layer_21">
	<path style="fill:#95CC29;" d="M9.5,7C9.096,7,8.731,7.162,8.461,7.421l-1.479-0.74L7,6.5L6.982,6.318l1.479-0.74
		C8.731,5.838,9.096,6,9.5,6C10.328,6,11,5.328,11,4.5S10.328,3,9.5,3S8,3.672,8,4.5l0.018,0.182l-1.479,0.74
		C6.269,5.162,5.904,5,5.5,5C4.672,5,4,5.672,4,6.5S4.672,8,5.5,8c0.404,0,0.769-0.162,1.039-0.421l1.479,0.74L8,8.5
		C8,9.328,8.672,10,9.5,10S11,9.328,11,8.5S10.328,7,9.5,7z"/>
	<g>
		<path style="fill:none;stroke:#666666;stroke-linecap:round;stroke-linejoin:round;stroke-miterlimit:10;" d="M8,0.5
			c-4.136,0-7.5,2.692-7.5,6c0,1.957,1.182,3.693,3,4.789V14.5l2.271-2.271C6.475,12.405,7.224,12.5,8,12.5c4.136,0,7.5-2.692,7.5-6
			S12.136,0.5,8,0.5z"/>
	</g>
	<rect x="0.001" style="fill:none;" width="16" height="16"/>
</g>
<g id="Layer_1">
</g>
</svg>
