<?xml version="1.0" encoding="iso-8859-1"?>
<!-- Generator: Adobe Illustrator 19.2.1, SVG Export Plug-In . SVG Version: 6.00 Build 0)  -->
<svg version="1.1" xmlns="http://www.w3.org/2000/svg" xmlns:xlink="http://www.w3.org/1999/xlink" x="0px" y="0px"
	 viewBox="0 0 16.001 16" style="enable-background:new 0 0 16.001 16;" xml:space="preserve">
<g id="Layer_22">
	<polygon style="fill:#95CC29;" points="13.001,8 10.001,12 12.001,12 12.001,16 14.001,16 14.001,12 16.001,12 	"/>
	<g>
		<g>
			<path style="fill:none;stroke:#666666;stroke-linejoin:bevel;stroke-miterlimit:10;" d="M15.5,9V1.5c0-0.552-0.448-1-1-1h-13
				c-0.552,0-1,0.448-1,1v10c0,0.552,0.448,1,1,1H9H1.5c-0.276,0-0.526-0.112-0.707-0.293L6.5,6.5"/>
			<line style="fill:none;stroke:#666666;stroke-linejoin:bevel;stroke-miterlimit:10;" x1="9.5" y1="6.5" x2="11.429" y2="8.429"/>
			<path style="fill:none;stroke:#666666;stroke-linejoin:bevel;stroke-miterlimit:10;" d="M14.5,0.5h-13
				c-0.276,0-0.526,0.112-0.707,0.293l6.5,6.5c0.391,0.391,1.024,0.391,1.414,0l6.5-6.5C15.026,0.612,14.776,0.5,14.5,0.5z"/>
		</g>
	</g>
	<rect x="0.001" style="fill:none;" width="16" height="16"/>
</g>
<g id="Layer_1">
</g>
</svg>
