<?xml version="1.0" encoding="iso-8859-1"?>
<!-- Generator: Adobe Illustrator 19.2.1, SVG Export Plug-In . SVG Version: 6.00 Build 0)  -->
<svg version="1.1" xmlns="http://www.w3.org/2000/svg" xmlns:xlink="http://www.w3.org/1999/xlink" x="0px" y="0px"
	 viewBox="0 0 16 16" style="enable-background:new 0 0 16 16;" xml:space="preserve">
<g id="Layer_23">
	<circle style="fill:#95CC29;" cx="8.999" cy="7" r="2"/>
	<path style="fill:#95CC29;" d="M11.999,13h-6v-1c0-1.657,1.343-3,3-3s3,1.343,3,3V13z"/>
	<g>
		<g>
			<path style="fill:none;stroke:#666666;stroke-miterlimit:10;" d="M13.499,2.5h-11c-0.55,0-1-0.45-1-1v13c0,0.55,0.45,1,1,1h11
				c0.55,0,1-0.45,1-1v-11C14.499,2.948,14.052,2.5,13.499,2.5z"/>
			<path style="fill:none;stroke:#666666;stroke-miterlimit:10;" d="M13.499,0.5h-11c-0.55,0-1,0.45-1,1s0.45,1,1,1h11
				c0.552,0,1,0.448,1,1v-2C14.499,0.95,14.049,0.5,13.499,0.5z"/>
			<line style="fill:none;stroke:#666666;stroke-miterlimit:10;" x1="3.499" y1="2.5" x2="3.499" y2="15.5"/>
		</g>
	</g>
	<rect style="fill:none;" width="16" height="16"/>
</g>
<g id="Layer_1">
</g>
</svg>
