<?xml version="1.0" encoding="iso-8859-1"?>
<!-- Generator: Adobe Illustrator 19.2.1, SVG Export Plug-In . SVG Version: 6.00 Build 0)  -->
<svg version="1.1" xmlns="http://www.w3.org/2000/svg" xmlns:xlink="http://www.w3.org/1999/xlink" x="0px" y="0px"
	 viewBox="0 0 16.088 16.003" style="enable-background:new 0 0 16.088 16.003;" xml:space="preserve">
<g id="Layer_24">
	<path style="fill:#95CC29;" d="M14.694,10.502c-0.697-0.563-1.671-1.56-1.713-2.459c-1.472,0.527-1.682,1.793-1.228,3.283
		c-0.583-0.065-0.822-0.417-1.109-0.914c-0.968,0.37-1.546,1.498-1.599,2.557H9.05c0.059,1.797,1.821,3.013,3.474,3.013
		C14.931,15.983,17.681,12.914,14.694,10.502z"/>
	<g>
		<path style="fill:none;stroke:#666666;stroke-miterlimit:10;" d="M8.925,10.503H6.544c-0.552,0-1,0.448-1,1v4h3.548H2.544v-7.08
			l4.91-4.92l0.59-0.59l0.59,0.59l3.712,3.72c-1.524-1.527-3.719-3.727-4.302-4.31c-0.921,0.921-5.867,5.876-5.83,5.839
			c-0.392,0.393-1.028,0.393-1.42,0.001c-0.392-0.392-0.392-1.027,0-1.419l6.54-6.54C7.53,0.598,7.787,0.5,8.044,0.5
			c0.257,0,0.515,0.098,0.71,0.293l6.54,6.54c0.392,0.392,0.392,1.027,0,1.419c-0.185,0.185-0.425,0.283-0.667,0.293"/>
		<polygon style="fill:none;stroke:#666666;stroke-miterlimit:10;" points="13.544,1.503 13.544,5.583 11.464,3.503 10.544,2.583 
			10.544,1.503 		"/>
	</g>
	<rect x="0.045" y="0.003" style="fill:none;" width="16" height="16"/>
</g>
<g id="Layer_1">
</g>
</svg>
