<?xml version="1.0" encoding="iso-8859-1"?>
<!-- Generator: Adobe Illustrator 19.2.1, SVG Export Plug-In . SVG Version: 6.00 Build 0)  -->
<svg version="1.1" xmlns="http://www.w3.org/2000/svg" xmlns:xlink="http://www.w3.org/1999/xlink" x="0px" y="0px"
	 viewBox="0 0 16.001 16" style="enable-background:new 0 0 16.001 16;" xml:space="preserve">
<g id="Layer_25">
	<path style="fill:#95CC29;" d="M15.864,8.136c0,0-3.546-0.697-5.303,1.061c-1.303,1.303-1.257,3.586-1.146,4.681l-1.268,1.268
		c-0.195,0.195-0.195,0.512,0,0.707c0.195,0.195,0.512,0.195,0.707,0l1.268-1.268c1.095,0.111,3.378,0.157,4.681-1.146
		C16.56,11.682,15.864,8.136,15.864,8.136z M11.268,9.904c0.943-0.943,2.717-0.953,3.701-0.872l-4.573,4.573l-0.005,0
		C10.302,12.511,10.377,10.795,11.268,9.904z"/>
	<g>
		<path style="fill:none;stroke:#666666;stroke-miterlimit:10;" d="M4.586,14.5c0.206,0.582,0.762,1,1.414,1s1.208-0.418,1.414-1"/>
		<path style="fill:none;stroke:#666666;stroke-miterlimit:10;" d="M11.28,7.542c0.236-0.805,0.292-1.687,0.121-2.599
			c-0.399-2.129-2.094-3.872-4.213-4.318C3.639-0.122,0.5,2.579,0.5,6c0,1.706,0.782,3.23,2.005,4.238
			c0.6,0.495,0.995,1.193,0.995,1.971V14c0,0.276,0.224,0.5,0.5,0.5h3.868"/>
		<path style="fill:none;stroke:#666666;stroke-linecap:round;stroke-linejoin:round;stroke-miterlimit:10;" d="M6,2.5
			C4.07,2.5,2.5,4.07,2.5,6"/>
		<line style="fill:none;stroke:#666666;stroke-miterlimit:10;" x1="4" y1="12.5" x2="8" y2="12.5"/>
	</g>
	<rect x="0.001" style="fill:none;" width="16" height="16"/>
</g>
<g id="Layer_1">
</g>
</svg>
