<?xml version="1.0" encoding="iso-8859-1"?>
<!-- Generator: Adobe Illustrator 19.2.1, SVG Export Plug-In . SVG Version: 6.00 Build 0)  -->
<svg version="1.1" xmlns="http://www.w3.org/2000/svg" xmlns:xlink="http://www.w3.org/1999/xlink" x="0px" y="0px"
	 viewBox="0 0 16.001 16" style="enable-background:new 0 0 16.001 16;" xml:space="preserve">
<g id="Layer_26">
	<path style="fill:#95CC29;" d="M10,6.243C10,8.712,10,13,10,13l2-2l2,2V5h-4C10,5,10,5.491,10,6.243z"/>
	<g>
		<path style="fill:none;stroke:#666666;stroke-miterlimit:10;" d="M2.5,14.5v-3v-5c0-0.552,0.448-1,1-1h11v-1c0-0.552-0.448-1-1-1
			h-8v-1c0-0.552-0.448-1-1-1h-3c-0.552,0-1,0.448-1,1v1v11c0,0.552,0.448,1,1,1C2.05,15.5,2.5,15.05,2.5,14.5z"/>
		<path style="fill:none;stroke:#666666;stroke-miterlimit:10;" d="M2.5,7.214V6.5c0-0.552,0.448-1,1-1h11c0.552,0,1,0.448,1,1v8
			c0,0.552-0.446,1-0.999,1c-4.147,0-12.001,0-12.001,0h-1c0.55,0,1-0.45,1-1v-3C2.5,11.5,2.5,8.364,2.5,7.214z"/>
	</g>
	<rect x="0.001" y="0" style="fill:none;" width="16" height="16"/>
</g>
<g id="Layer_1">
</g>
</svg>
