<?xml version="1.0" encoding="iso-8859-1"?>
<!-- Generator: Adobe Illustrator 19.2.1, SVG Export Plug-In . SVG Version: 6.00 Build 0)  -->
<svg version="1.1" xmlns="http://www.w3.org/2000/svg" xmlns:xlink="http://www.w3.org/1999/xlink" x="0px" y="0px"
	 viewBox="0 0 16.001 16" style="enable-background:new 0 0 16.001 16;" xml:space="preserve">
<g id="Layer_27">
	<path style="fill:#95CC29;" d="M10.836,8.681C10.353,8.761,10,9.178,10,9.667v2.153v2.241C9.843,14.024,9.676,14,9.5,14
		C8.672,14,8,14.448,8,15s0.672,1,1.5,1s1.5-0.448,1.5-1v-4.347l4-0.667v3.075C14.843,13.024,14.676,13,14.5,13
		c-0.828,0-1.5,0.448-1.5,1s0.672,1,1.5,1s1.5-0.448,1.5-1v-3.18V9c0-0.618-0.555-1.088-1.164-0.986L10.836,8.681z"/>
	<g>
		<path style="fill:none;stroke:#666666;stroke-miterlimit:10;" d="M7.059,15.441C3.366,14.977,0.5,11.817,0.5,8
			c0-4.136,3.364-7.5,7.5-7.5c3.813,0,6.971,2.86,7.44,6.548"/>
		<path style="fill:none;stroke:#666666;stroke-linecap:round;stroke-linejoin:round;stroke-miterlimit:10;" d="M3.5,8
			c0-2.481,2.018-4.5,4.5-4.5"/>
		
			<circle style="fill:none;stroke:#666666;stroke-linecap:round;stroke-linejoin:round;stroke-miterlimit:10;" cx="8" cy="8" r="1.5"/>
		<path style="fill:none;stroke:#666666;stroke-linecap:round;stroke-linejoin:round;stroke-miterlimit:10;" d="M8,9.5
			c-0.414,0-0.789-0.168-1.06-0.44S6.5,8.414,6.5,8s0.168-0.789,0.44-1.06S7.586,6.5,8,6.5s0.789,0.168,1.06,0.44S9.5,7.586,9.5,8
			S9.332,8.789,9.06,9.06S8.414,9.5,8,9.5z"/>
	</g>
	<rect x="0.001" style="fill:none;" width="16" height="16"/>
</g>
<g id="Layer_1">
</g>
</svg>
