<?xml version="1.0" encoding="iso-8859-1"?>
<!-- Generator: Adobe Illustrator 19.2.1, SVG Export Plug-In . SVG Version: 6.00 Build 0)  -->
<svg version="1.1" xmlns="http://www.w3.org/2000/svg" xmlns:xlink="http://www.w3.org/1999/xlink" x="0px" y="0px"
	 viewBox="0 0 16.001 16" style="enable-background:new 0 0 16.001 16;" xml:space="preserve">
<g id="Layer_28">
	<path style="fill:#95CC29;" d="M12.457,8.048c-1.229,0.216-2.228,1.239-2.419,2.472c-0.133,0.857,0.098,1.66,0.561,2.278L12.6,15.8
		c0.2,0.267,0.6,0.267,0.8,0l2.001-3.002C15.777,12.297,16,11.675,16,11C16,9.165,14.353,7.715,12.457,8.048z M13,12
		c-0.552,0-1-0.448-1-1s0.448-1,1-1c0.552,0,1,0.448,1,1S13.552,12,13,12z"/>
	<g>
		<path style="fill:none;stroke:#666666;stroke-linejoin:round;stroke-miterlimit:10;" d="M11.052,15.279L10.5,15.5l-5-2l-5,2
			c0-1.835,0-11.193,0-13l5-2l5,2l5-2c0,3.186,0,5.197,0,7.38"/>
		<line style="fill:none;stroke:#666666;stroke-miterlimit:10;" x1="5.5" y1="0.5" x2="5.5" y2="13.5"/>
		<line style="fill:none;stroke:#666666;stroke-miterlimit:10;" x1="10.5" y1="2.5" x2="10.5" y2="7.88"/>
	</g>
	<rect x="0.001" style="fill:none;" width="16" height="16"/>
</g>
<g id="Layer_1">
</g>
</svg>
