<?xml version="1.0" encoding="iso-8859-1"?>
<!-- Generator: Adobe Illustrator 19.2.1, SVG Export Plug-In . SVG Version: 6.00 Build 0)  -->
<svg version="1.1" xmlns="http://www.w3.org/2000/svg" xmlns:xlink="http://www.w3.org/1999/xlink" x="0px" y="0px"
	 viewBox="0 0 16.001 16" style="enable-background:new 0 0 16.001 16;" xml:space="preserve">
<g id="Layer_29">
	<path style="fill:#95CC29;" d="M15.19,8.93c-0.18-0.28-0.41-0.53-0.66-0.75C13.85,7.55,12.97,7.13,12,7.03
		C11.84,7.01,11.67,7,11.5,7S11.16,7.01,11,7.03c-0.97,0.1-1.85,0.52-2.53,1.15C8.22,8.4,7.99,8.65,7.81,8.93
		C7.3,9.66,7,10.55,7,11.5c0,2.38,1.85,4.31,4.2,4.47c0.09,0.02,0.2,0.03,0.3,0.03s0.21-0.01,0.3-0.03c2.35-0.16,4.2-2.09,4.2-4.47
		C16,10.55,15.7,9.66,15.19,8.93z M12.48,8.93c0.08,0.15,0.14,0.31,0.2,0.49c0.07,0.18,0.12,0.31,0.16,0.47
		c0.06,0.23,0.1,0.52,0.12,1.11H12V8.24C12.16,8.39,12.33,8.62,12.48,8.93z M8.69,9.45c0.2-0.3,0.46-0.56,0.75-0.77l0.14-0.1
		L9.53,8.71C9.47,8.84,9.42,8.96,9.37,9.1C9.3,9.3,9.25,9.46,9.2,9.64C9.12,9.98,9.07,10.35,9.04,11H8.05
		C8.14,10.43,8.35,9.9,8.69,9.45z M8.05,12h0.98c0.05,1,0.24,1.75,0.56,2.42C8.77,13.89,8.2,13,8.05,12z M10.17,9.89
		c0.09-0.38,0.2-0.68,0.34-0.96l0.02-0.04C10.68,8.6,10.84,8.38,11,8.24V11h-0.97C10.05,10.56,10.1,10.2,10.17,9.89z M10.04,12H11
		v2.76c-0.24-0.22-0.5-0.63-0.68-1.18C10.16,13.13,10.08,13,10.04,12z M12.47,14.1c-0.15,0.3-0.31,0.52-0.47,0.66V12h0.97
		C12.92,13,12.73,13.58,12.47,14.1z M13.42,14.42c0.08-0.17,0.15-0.34,0.21-0.52c0.19-0.56,0.29-0.9,0.33-1.9h0.99
		C14.8,13,14.24,13.88,13.42,14.42z M13.97,11c-0.03-0.51-0.09-0.95-0.19-1.35C13.7,9.31,13.6,9,13.47,8.71l-0.06-0.13l0.14,0.1
		c0.3,0.21,0.56,0.47,0.77,0.77c0.33,0.45,0.54,0.98,0.63,1.55H13.97z"/>
	<g>
		<path style="fill:none;stroke:#666666;stroke-miterlimit:10;" d="M7.752,15.5H1.5c-0.552,0-1-0.448-1-1v-13c0-0.552,0.448-1,1-1
			h13c0.552,0,1,0.448,1,1v6.224"/>
		<line style="fill:none;stroke:#666666;stroke-miterlimit:10;" x1="1" y1="5.5" x2="15" y2="5.5"/>
		<line style="fill:none;stroke:#666666;stroke-miterlimit:10;" x1="1" y1="10.5" x2="6.091" y2="10.5"/>
		<line style="fill:none;stroke:#666666;stroke-miterlimit:10;" x1="7" y1="2.5" x2="13" y2="2.5"/>
		<circle style="fill:#666666;" cx="4" cy="3" r="1"/>
		<circle style="fill:#666666;" cx="4" cy="8" r="1"/>
		<circle style="fill:#666666;" cx="4" cy="13" r="1"/>
	</g>
	<rect x="0.001" style="fill:none;" width="16" height="16"/>
</g>
<g id="Layer_1">
</g>
</svg>
