<?xml version="1.0" encoding="iso-8859-1"?>
<!-- Generator: Adobe Illustrator 19.2.1, SVG Export Plug-In . SVG Version: 6.00 Build 0)  -->
<svg version="1.1" xmlns="http://www.w3.org/2000/svg" xmlns:xlink="http://www.w3.org/1999/xlink" x="0px" y="0px"
	 viewBox="0 0 16.001 16" style="enable-background:new 0 0 16.001 16;" xml:space="preserve">
<g id="Layer_30">
	<path style="fill:#95CC29;" d="M12.5,9C10.567,9,9,10.567,9,12.5s1.567,3.5,3.5,3.5s3.5-1.567,3.5-3.5S14.433,9,12.5,9z
		 M14.854,11.854l-2.5,2.5C12.26,14.447,12.132,14.5,12,14.5s-0.26-0.053-0.354-0.146l-1.5-1.5c-0.195-0.195-0.195-0.512,0-0.707
		c0.195-0.195,0.512-0.195,0.707,0L12,13.293l2.146-2.146c0.195-0.195,0.512-0.195,0.707,0S15.049,11.658,14.854,11.854z"/>
	<g>
		<path style="fill:none;stroke:#666666;stroke-miterlimit:10;" d="M12.5,8V3.5c0-0.552-0.448-1-1-1h-2c0.552,0,1,0.448,1,1v1h-8v-1
			c0-0.552,0.448-1,1-1h-2c-0.552,0-1,0.448-1,1v11c0,0.552,0.448,1,1,1H9"/>
		<path style="fill:none;stroke:#666666;stroke-miterlimit:10;" d="M8.5,2.5c0-1.105-0.895-2-2-2c-1.105,0-2,0.895-2,2h-1
			c-0.552,0-1,0.448-1,1v1h8v-1c0-0.552-0.448-1-1-1H8.5z"/>
		<circle style="fill:#666666;" cx="6.5" cy="2.5" r="0.5"/>
	</g>
	<rect x="0.001" style="fill:none;" width="16" height="16"/>
</g>
<g id="Layer_1">
</g>
</svg>
