<?xml version="1.0" encoding="iso-8859-1"?>
<!-- Generator: Adobe Illustrator 19.2.1, SVG Export Plug-In . SVG Version: 6.00 Build 0)  -->
<svg version="1.1" xmlns="http://www.w3.org/2000/svg" xmlns:xlink="http://www.w3.org/1999/xlink" x="0px" y="0px"
	 viewBox="0 0 16.001 16" style="enable-background:new 0 0 16.001 16;" xml:space="preserve">
<g id="Layer_31">
	<path style="fill:#95CC29;" d="M8,10.086c0.13-0.001,0.255-0.048,0.354-0.146l2.89-2.89L11,7H5L4.756,7.049l2.89,2.89
		C7.745,10.038,7.87,10.085,8,10.086z"/>
	<path style="fill:#95CC29;" d="M9.061,10.646C8.769,10.938,8.382,11.086,8,11.086c-0.382,0.001-0.769-0.147-1.061-0.439l-2.89-2.89
		L4,8v4c0,0.552,0.448,1,1,1h6c0.552,0,1-0.448,1-1V8l-0.049-0.244L9.061,10.646z"/>
	<g>
		<path style="fill:none;stroke:#666666;stroke-linecap:round;stroke-linejoin:round;stroke-miterlimit:10;" d="M14.5,15.5h-13
			c-0.552,0-1-0.448-1-1v-13c0-0.552,0.448-1,1-1h13c0.552,0,1,0.448,1,1v13C15.5,15.052,15.052,15.5,14.5,15.5z"/>
		
			<line style="fill:none;stroke:#666666;stroke-linecap:round;stroke-linejoin:round;stroke-miterlimit:10;" x1="0.5" y1="4.5" x2="15.5" y2="4.5"/>
		<circle style="fill:#666666;" cx="13.5" cy="2.5" r="0.5"/>
		<circle style="fill:#666666;" cx="11.5" cy="2.5" r="0.5"/>
		<circle style="fill:#666666;" cx="9.5" cy="2.5" r="0.5"/>
	</g>
	<rect x="0.001" style="fill:none;" width="16" height="16"/>
</g>
<g id="Layer_1">
</g>
</svg>
