<?xml version="1.0" encoding="iso-8859-1"?>
<!-- Generator: Adobe Illustrator 19.2.1, SVG Export Plug-In . SVG Version: 6.00 Build 0)  -->
<svg version="1.1" xmlns="http://www.w3.org/2000/svg" xmlns:xlink="http://www.w3.org/1999/xlink" x="0px" y="0px"
	 viewBox="0 0 16.02 16" style="enable-background:new 0 0 16.02 16;" xml:space="preserve">
<g id="Layer_32">
	<path style="fill:#95CC29;" d="M15.02,11V9h-2l-1-1l-4,4l1,1c0,1.053,0,1.96,0,3c0.73,0,1.291,0,2,0c0-1,0-1.833,0-3h2v3
		c0.709,0,1.27,0,2,0c0-1,0-1.833,0-3l1-1L15.02,11z"/>
	<g>
		<path style="fill:none;stroke:#666666;stroke-miterlimit:10;" d="M11.349,7.304c0.209-0.697,0.208-1.3,0.094-2.116
			C11.091,2.684,8.913,0.505,6.01,0.5C3.107,0.505,0.929,2.684,0.577,5.188C0.232,7.64,0.92,8.174,5.22,15.1
			c0.198,0.264,0.493,0.397,0.79,0.4c0.297-0.003,0.592-0.136,0.79-0.4c0.404-0.65,0.775-1.244,1.117-1.788 M6.02,7.5
			c-0.827,0-1.5-0.673-1.5-1.5s0.673-1.5,1.5-1.5s1.5,0.673,1.5,1.5S6.847,7.5,6.02,7.5z"/>
	</g>
	<rect x="0.02" style="fill:none;" width="16" height="16"/>
</g>
<g id="Layer_1">
</g>
</svg>
