<?xml version="1.0" encoding="iso-8859-1"?>
<!-- Generator: Adobe Illustrator 19.2.1, SVG Export Plug-In . SVG Version: 6.00 Build 0)  -->
<svg version="1.1" xmlns="http://www.w3.org/2000/svg" xmlns:xlink="http://www.w3.org/1999/xlink" x="0px" y="0px"
	 viewBox="0 0 16.001 16" style="enable-background:new 0 0 16.001 16;" xml:space="preserve">
<g id="Layer_33">
	<path style="fill:#95CC29;" d="M12,0C9.791,0,8,1.567,8,3.5S9.791,7,12,7l0.076-0.007l-0.015,0.067
		c-0.119,0.298-0.368,0.576-0.613,0.726C11.206,7.943,11,8,11,8s0.192,0.073,0.523,0.09c0.329,0.021,0.805-0.06,1.244-0.322
		c0.438-0.256,0.805-0.688,0.989-1.078l0.03-0.074C15.094,6.04,16,4.868,16,3.5C16,1.567,14.209,0,12,0z M13.5,5h-3
		C10.225,5,10,4.775,10,4.5S10.225,4,10.5,4h3C13.775,4,14,4.225,14,4.5S13.775,5,13.5,5z M13.5,3h-3C10.225,3,10,2.775,10,2.5
		S10.225,2,10.5,2h3C13.775,2,14,2.225,14,2.5S13.775,3,13.5,3z"/>
	<g>
		<path style="fill:none;stroke:#666666;stroke-miterlimit:10;" d="M8.983,7.645C8.434,8.178,7.759,8.5,7,8.5
			c-0.767,0-1.44-0.328-1.983-0.855"/>
		<path style="fill:none;stroke:#666666;stroke-miterlimit:10;" d="M9.305,7.273C9.15,7.469,8.98,7.647,8.797,7.803L8.741,7.851
			l-0.04,0.062C8.402,8.375,8.315,8.788,8.434,9.176c0.21,0.687,0.964,1.008,1.919,1.415c0.927,0.395,1.977,0.843,2.759,1.698
			c0.219,0.239,0.354,0.509,0.393,0.78L13.5,15c0,0.276-0.224,0.5-0.5,0.5H1c-0.276,0-0.5-0.224-0.5-0.5v-2
			c0.033-0.202,0.169-0.472,0.388-0.711c0.782-0.855,1.833-1.303,2.759-1.698c0.955-0.406,1.708-0.728,1.919-1.415
			c0.119-0.388,0.032-0.801-0.267-1.263l-0.04-0.062L5.203,7.803C3.828,6.631,3.196,4.2,3.825,2.493C4.16,1.584,4.982,0.5,7,0.5
			c0.434,0,0.813,0.05,1.144,0.138"/>
	</g>
	<rect x="0.001" style="fill:none;" width="16" height="16"/>
</g>
<g id="Layer_1">
</g>
</svg>
