<?xml version="1.0" encoding="iso-8859-1"?>
<!-- Generator: Adobe Illustrator 19.2.1, SVG Export Plug-In . SVG Version: 6.00 Build 0)  -->
<svg version="1.1" xmlns="http://www.w3.org/2000/svg" xmlns:xlink="http://www.w3.org/1999/xlink" x="0px" y="0px"
	 viewBox="0 0 16.001 16" style="enable-background:new 0 0 16.001 16;" xml:space="preserve">
<g id="Layer_34">
	<path style="fill:#95CC29;" d="M10.025,10.025c-1.367,1.367-1.367,3.583,0,4.95c1.367,1.367,3.583,1.367,4.95,0
		c1.367-1.367,1.367-3.583,0-4.95S11.392,8.658,10.025,10.025z M13.914,11.793L13.207,12.5l0.707,0.707
		c0.195,0.195,0.195,0.512,0,0.707c-0.195,0.195-0.512,0.195-0.707,0L12.5,13.207l-0.707,0.707c-0.195,0.195-0.512,0.195-0.707,0
		c-0.195-0.195-0.195-0.512,0-0.707l0.707-0.707l-0.707-0.707c-0.195-0.195-0.195-0.512,0-0.707c0.195-0.195,0.512-0.195,0.707,0
		l0.707,0.707l0.707-0.707c0.195-0.195,0.512-0.195,0.707,0C14.109,11.281,14.109,11.598,13.914,11.793z"/>
	<g>
		<line style="fill:none;stroke:#666666;stroke-linejoin:round;stroke-miterlimit:10;" x1="4.5" y1="4.5" x2="4.5" y2="11.5"/>
		<g>
			<path style="fill:none;stroke:#666666;stroke-linejoin:round;stroke-miterlimit:10;" d="M8.861,15.148
				c-0.023-0.019-0.046-0.04-0.068-0.062L5.207,11.5H1.5c-0.552,0-1-0.447-1-1v-5c0-0.553,0.448-1,1-1h3.707l3.586-3.586
				C8.984,0.723,9.24,0.621,9.5,0.621c0.129,0,0.259,0.024,0.383,0.076c0.374,0.154,0.617,0.52,0.617,0.924V8"/>
		</g>
	</g>
	<rect x="0.001" style="fill:none;" width="16" height="16"/>
</g>
<g id="Layer_1">
</g>
</svg>
