<?xml version="1.0" encoding="iso-8859-1"?>
<!-- Generator: Adobe Illustrator 19.2.1, SVG Export Plug-In . SVG Version: 6.00 Build 0)  -->
<svg version="1.1" xmlns="http://www.w3.org/2000/svg" xmlns:xlink="http://www.w3.org/1999/xlink" x="0px" y="0px"
	 viewBox="0 0 16 16.063" style="enable-background:new 0 0 16 16.063;" xml:space="preserve">
<g id="Layer_35">
	<path style="fill:#95CC29;" d="M5.499,10.814c-0.006,0.569,0.283,1.055,0.673,1.333c0.39,0.284,0.862,0.406,1.328,0.407
		c0.466-0.001,0.938-0.123,1.328-0.407c0.391-0.278,0.679-0.764,0.673-1.333c0.001-0.302-0.061-0.581-0.19-0.815
		C9.082,9.58,8.691,9.37,8.341,9.254C7.81,9.081,7.268,9.037,6.93,8.906C6.761,8.843,6.661,8.774,6.605,8.703
		C6.55,8.631,6.502,8.54,6.499,8.311C6.506,8.054,6.592,7.92,6.765,7.784c0.173-0.13,0.452-0.215,0.736-0.213
		c0.285-0.001,0.563,0.084,0.736,0.213c0.172,0.135,0.259,0.27,0.265,0.528c0,0.276,0.224,0.5,0.5,0.5c0.276,0,0.5-0.224,0.5-0.5
		c0.006-0.569-0.282-1.055-0.673-1.333c-0.39-0.284-0.862-0.406-1.328-0.407C7.035,6.572,6.563,6.694,6.173,6.978
		c-0.391,0.278-0.68,0.764-0.673,1.333C5.499,8.614,5.561,8.892,5.69,9.127C5.919,9.545,6.31,9.755,6.66,9.871
		c0.531,0.173,1.074,0.217,1.411,0.348c0.169,0.063,0.269,0.132,0.326,0.203c0.055,0.072,0.103,0.164,0.105,0.392
		c-0.006,0.258-0.093,0.392-0.265,0.527c-0.172,0.129-0.451,0.214-0.736,0.213c-0.285,0.001-0.564-0.084-0.736-0.213
		c-0.172-0.135-0.259-0.27-0.265-0.527c0-0.276-0.224-0.5-0.5-0.5C5.723,10.314,5.499,10.537,5.499,10.814L5.499,10.814z"/>
	<path style="fill:#95CC29;" d="M6.999,6.563v0.508c0,0.276,0.224,0.5,0.5,0.5c0.276,0,0.5-0.224,0.5-0.5V6.563
		c0-0.276-0.224-0.5-0.5-0.5C7.223,6.063,6.999,6.286,6.999,6.563"/>
	<path style="fill:#95CC29;" d="M6.999,12.054v0.508c0,0.276,0.224,0.5,0.5,0.5c0.276,0,0.5-0.224,0.5-0.5v-0.508
		c0-0.276-0.224-0.5-0.5-0.5C7.223,11.554,6.999,11.778,6.999,12.054"/>
	<g>
		<path style="fill:none;stroke:#666666;stroke-linecap:round;stroke-linejoin:round;stroke-miterlimit:10;" d="M7.499,15.563
			c-11.016,0-4.504-12,0-12C12.072,3.563,18.427,15.563,7.499,15.563z"/>
		<path style="fill:none;stroke:#666666;stroke-linecap:round;stroke-linejoin:round;stroke-miterlimit:10;" d="M7.499,1.063
			c-0.594-0.75-1.906-0.75-2.5,0c0,0,1.031,2.5,2.5,2.5s2.5-2.5,2.5-2.5C9.422,1.986,8.175,1.917,7.499,1.063z"/>
	</g>
	<rect y="0.063" style="fill:none;" width="16" height="16"/>
</g>
<g id="Layer_1">
</g>
</svg>
