<?xml version="1.0" encoding="iso-8859-1"?>
<!-- Generator: Adobe Illustrator 19.2.1, SVG Export Plug-In . SVG Version: 6.00 Build 0)  -->
<svg version="1.1" xmlns="http://www.w3.org/2000/svg" xmlns:xlink="http://www.w3.org/1999/xlink" x="0px" y="0px"
	 viewBox="0 0 16 16" style="enable-background:new 0 0 16 16;" xml:space="preserve">
<g id="Layer_36">
	<path style="fill:#95CC29;" d="M12.499,9c-1.933,0-3.5,1.567-3.5,3.5s1.567,3.5,3.5,3.5s3.5-1.567,3.5-3.5S14.432,9,12.499,9z
		 M13.999,13h-1v1c0,0.276-0.224,0.5-0.5,0.5c-0.276,0-0.5-0.224-0.5-0.5v-1h-1c-0.276,0-0.5-0.224-0.5-0.5
		c0-0.276,0.224-0.5,0.5-0.5h1v-1c0-0.276,0.224-0.5,0.5-0.5s0.5,0.224,0.5,0.5v1h1c0.276,0,0.5,0.224,0.5,0.5
		C14.499,12.776,14.275,13,13.999,13z"/>
	<g>
		<path style="fill:none;stroke:#666666;stroke-linejoin:round;stroke-miterlimit:10;" d="M9.249,6.75L9.249,6.75
			c0.967,0.967,2.534,0.967,3.5,0l2-2c0.966-0.966,0.966-2.533,0-3.5l0,0c-0.966-0.966-2.533-0.966-3.5,0l-2,2
			C8.283,4.216,8.283,5.784,9.249,6.75z"/>
		<path style="fill:none;stroke:#666666;stroke-linejoin:round;stroke-miterlimit:10;" d="M1.249,14.75L1.249,14.75
			c0.967,0.967,2.534,0.967,3.5,0l2-2c0.966-0.966,0.966-2.533,0-3.5l0,0c-0.966-0.966-2.533-0.966-3.5,0l-2,2
			C0.283,12.216,0.283,13.784,1.249,14.75z"/>
		
			<line style="fill:none;stroke:#666666;stroke-linecap:round;stroke-linejoin:round;stroke-miterlimit:10;" x1="5.499" y1="10.5" x2="10.499" y2="5.5"/>
	</g>
	<rect style="fill:none;" width="16" height="16"/>
</g>
<g id="Layer_1">
</g>
</svg>
