<?xml version="1.0" encoding="iso-8859-1"?>
<!-- Generator: Adobe Illustrator 19.2.1, SVG Export Plug-In . SVG Version: 6.00 Build 0)  -->
<svg version="1.1" xmlns="http://www.w3.org/2000/svg" xmlns:xlink="http://www.w3.org/1999/xlink" x="0px" y="0px"
	 viewBox="0 0 16.001 16" style="enable-background:new 0 0 16.001 16;" xml:space="preserve">
<g id="Layer_37">
	<path style="fill:#95CC29;" d="M8.879,9.879C9.463,9.295,10.227,9.002,11,9.002c1.663,0,2.998,1.342,2.998,2.998
		c0,0.14-0.01,0.283-0.029,0.428l0.991,0.135c0.026-0.189,0.038-0.377,0.038-0.563c0-1.102-0.446-2.104-1.168-2.827
		C13.109,8.45,12.106,8.001,11,8.002c-1.025-0.001-2.051,0.393-2.828,1.17L8.879,9.879L8.879,9.879z"/>
	<path style="fill:#95CC29;" d="M13.121,14.121c-0.584,0.584-1.349,0.876-2.121,0.877c-1.663,0-2.998-1.342-2.998-2.998
		c0-0.14,0.01-0.283,0.029-0.427L7.04,11.437C7.014,11.627,7.002,11.815,7.002,12c0,1.102,0.446,2.104,1.168,2.827
		c0.721,0.723,1.725,1.172,2.83,1.172c1.025,0.001,2.051-0.393,2.828-1.17L13.121,14.121L13.121,14.121z"/>
	<path style="fill:#95CC29;" d="M13.146,11.854l1,1C14.24,12.947,14.368,13,14.5,13c0.132,0,0.26-0.053,0.354-0.146l1-1
		c0.195-0.195,0.195-0.512,0-0.707c-0.195-0.195-0.512-0.195-0.707,0L14.5,11.793l-0.646-0.646c-0.195-0.195-0.512-0.195-0.707,0
		C12.951,11.342,12.951,11.658,13.146,11.854L13.146,11.854z"/>
	<path style="fill:#95CC29;" d="M6.854,12.854L7.5,12.207l0.646,0.646c0.195,0.195,0.512,0.195,0.707,0
		c0.195-0.195,0.195-0.512,0-0.707l-1-1c-0.195-0.195-0.512-0.195-0.707,0l-1,1c-0.195,0.195-0.195,0.512,0,0.707
		C6.342,13.049,6.658,13.049,6.854,12.854L6.854,12.854z"/>
	<polygon style="fill:#95CC29;" points="8.879,9.879 8.879,9.879 8.879,9.879 	"/>
	<g>
		<path style="fill:none;stroke:#666666;stroke-miterlimit:10;" d="M7.461,15.5H2.5c-0.552,0-1-0.448-1-1v-10h10v2.527"/>
		<path style="fill:none;stroke:#666666;stroke-miterlimit:10;" d="M11.5,4.5h-10c-0.552,0-1-0.448-1-1l0,0c0-0.552,0.448-1,1-1h10
			c0.552,0,1,0.448,1,1l0,0C12.5,4.052,12.052,4.5,11.5,4.5z"/>
		<line style="fill:none;stroke:#666666;stroke-miterlimit:10;" x1="6.5" y1="7" x2="6.5" y2="10"/>
		<line style="fill:none;stroke:#666666;stroke-miterlimit:10;" x1="3.5" y1="7" x2="3.5" y2="13"/>
		<path style="fill:none;stroke:#666666;stroke-miterlimit:10;" d="M8.5,2.5h-4v-1c0-0.552,0.448-1,1-1h2c0.552,0,1,0.448,1,1V2.5z"
			/>
	</g>
	<rect x="0.001" style="fill:none;" width="16" height="16"/>
</g>
<g id="Layer_1">
</g>
</svg>
