<?xml version="1.0" encoding="iso-8859-1"?>
<!-- Generator: Adobe Illustrator 19.2.1, SVG Export Plug-In . SVG Version: 6.00 Build 0)  -->
<svg version="1.1" xmlns="http://www.w3.org/2000/svg" xmlns:xlink="http://www.w3.org/1999/xlink" x="0px" y="0px"
	 viewBox="0 0 16.001 16" style="enable-background:new 0 0 16.001 16;" xml:space="preserve">
<g id="Layer_38">
	<rect x="4" y="8" style="fill:#95CC29;" width="2" height="2"/>
	<rect x="7" y="6" style="fill:#95CC29;" width="2" height="4"/>
	<rect x="10" y="4" style="fill:#95CC29;" width="2" height="6"/>
	<g>
		<path style="fill:none;stroke:#666666;stroke-miterlimit:10;" d="M14.5,2.5h-13c-0.552,0-1-0.448-1-1l0,0c0-0.552,0.448-1,1-1h13
			c0.552,0,1,0.448,1,1l0,0C15.5,2.052,15.052,2.5,14.5,2.5z"/>
		
			<rect x="1.5" y="2.5" style="fill:none;stroke:#666666;stroke-linecap:round;stroke-linejoin:round;stroke-miterlimit:10;" width="13" height="9"/>
		<line style="fill:none;stroke:#666666;stroke-miterlimit:10;" x1="7.5" y1="13.5" x2="7.5" y2="11.5"/>
		<circle style="fill:none;stroke:#666666;stroke-miterlimit:10;" cx="7.5" cy="14.5" r="1"/>
	</g>
	<rect x="0.001" style="fill:none;" width="16" height="16"/>
</g>
<g id="Layer_1">
</g>
</svg>
