<?xml version="1.0" encoding="iso-8859-1"?>
<!-- Generator: Adobe Illustrator 19.2.1, SVG Export Plug-In . SVG Version: 6.00 Build 0)  -->
<svg version="1.1" xmlns="http://www.w3.org/2000/svg" xmlns:xlink="http://www.w3.org/1999/xlink" x="0px" y="0px"
	 viewBox="0 0 16.036 16.036" style="enable-background:new 0 0 16.036 16.036;" xml:space="preserve">
<g id="Layer_40">
	<path style="fill:#95CC29;" d="M14.905,3.234l0.837-0.82c0.391-0.391,0.391-1.024,0-1.414l-0.707-0.707
		c-0.39-0.391-1.024-0.391-1.414,0l-0.82,0.837L14.905,3.234z"/>
	<polygon style="fill:#95CC29;" points="12.102,1.845 8,6.036 8,8.036 10,8.036 14.191,3.933 	"/>
	<g>
		<path style="fill:none;stroke:#666666;stroke-miterlimit:10;" d="M12.5,15.536h-10c-1.105,0-2-0.895-2-2v-12c0-0.552,0.448-1,1-1
			h10c0.143,0,0.279,0.03,0.402,0.084"/>
		<line style="fill:none;stroke:#666666;stroke-miterlimit:10;" x1="12.5" y1="6.988" x2="12.5" y2="13.536"/>
		<path style="fill:none;stroke:#666666;stroke-miterlimit:10;" d="M4.5,13.536h6h2h2c0,1.105-0.895,2-2,2h-10
			C3.605,15.536,4.5,14.64,4.5,13.536z"/>
	</g>
	<rect x="0.001" y="0.036" style="fill:none;" width="16" height="16"/>
</g>
<g id="Layer_1">
</g>
</svg>
