<?xml version="1.0" encoding="iso-8859-1"?>
<!-- Generator: Adobe Illustrator 19.2.1, SVG Export Plug-In . SVG Version: 6.00 Build 0)  -->
<svg version="1.1" xmlns="http://www.w3.org/2000/svg" xmlns:xlink="http://www.w3.org/1999/xlink" x="0px" y="0px"
	 viewBox="0 0 16.001 16" style="enable-background:new 0 0 16.001 16;" xml:space="preserve">
<g id="Layer_5">
	<path style="fill:#95CC29;" d="M15,12l0-1.357c0-1.308-0.941-2.499-2.242-2.63C11.261,7.863,10,9.034,10,10.5V12
		c-0.552,0-1,0.448-1,1v2c0,0.552,0.448,1,1,1h5c0.552,0,1-0.448,1-1v-2C16,12.448,15.552,12,15,12z M13,14.5
		c0,0.275-0.225,0.5-0.5,0.5S12,14.775,12,14.5v-1c0-0.275,0.225-0.5,0.5-0.5s0.5,0.225,0.5,0.5V14.5z M11,12v-1.5
		C11,9.673,11.673,9,12.5,9S14,9.673,14,10.5V12H11z"/>
	<g>
		<polyline style="fill:none;stroke:#666666;stroke-linejoin:round;stroke-miterlimit:10;" points="12.5,7 12.5,0.5 3.5,0.5 
			0.5,3.5 0.5,15.5 8,15.5 		"/>
		
			<line style="fill:none;stroke:#666666;stroke-linecap:round;stroke-linejoin:round;stroke-miterlimit:10;" x1="5.5" y1="3.5" x2="5.5" y2="4.5"/>
		
			<line style="fill:none;stroke:#666666;stroke-linecap:round;stroke-linejoin:round;stroke-miterlimit:10;" x1="7.5" y1="3.5" x2="7.5" y2="4.5"/>
		
			<line style="fill:none;stroke:#666666;stroke-linecap:round;stroke-linejoin:round;stroke-miterlimit:10;" x1="9.5" y1="3.5" x2="9.5" y2="4.5"/>
		
			<line style="fill:none;stroke:#666666;stroke-linecap:round;stroke-linejoin:round;stroke-miterlimit:10;" x1="3.5" y1="3.5" x2="3.5" y2="4.5"/>
		<polyline style="fill:none;stroke:#666666;stroke-linejoin:round;stroke-miterlimit:10;" points="8,12.5 3.5,12.5 3.5,8.5 9,8.5 
					"/>
	</g>
	<rect x="0.001" style="fill:none;" width="16" height="16"/>
</g>
<g id="Layer_1">
</g>
</svg>
