<?xml version="1.0" encoding="iso-8859-1"?>
<!-- Generator: Adobe Illustrator 19.2.1, SVG Export Plug-In . SVG Version: 6.00 Build 0)  -->
<svg version="1.1" xmlns="http://www.w3.org/2000/svg" xmlns:xlink="http://www.w3.org/1999/xlink" x="0px" y="0px"
	 viewBox="0 0 16 16" style="enable-background:new 0 0 16 16;" xml:space="preserve">
<g id="Layer_6">
	<path style="fill:#95CC29;" d="M11.035,8c0-0.187-0.022-0.368-0.055-0.546l1.019-0.588l-1-1.732L9.972,5.727
		c-0.275-0.235-0.59-0.419-0.937-0.543V4h-2v1.184C6.687,5.307,6.373,5.492,6.098,5.727L5.071,5.134l-1,1.732L5.09,7.454
		C5.057,7.632,5.035,7.813,5.035,8S5.057,8.368,5.09,8.546L4.071,9.134l1,1.732l1.027-0.593c0.275,0.235,0.59,0.419,0.937,0.543V12
		h2v-1.184c0.348-0.124,0.662-0.308,0.937-0.543l1.027,0.593l1-1.732L10.98,8.546C11.013,8.368,11.035,8.187,11.035,8z M8.035,9
		c-0.552,0-1-0.448-1-1c0-0.552,0.448-1,1-1c0.552,0,1,0.448,1,1C9.035,8.552,8.587,9,8.035,9z"/>
	<g>
		<path style="fill:none;stroke:#666666;stroke-linecap:round;stroke-linejoin:round;stroke-miterlimit:10;" d="M1.499,2.5l6.5-2
			l6.5,2c0,6.23,1.045,10.678-6.5,13C0.462,13.181,1.499,8.744,1.499,2.5z"/>
	</g>
	<rect style="fill:none;" width="16" height="16"/>
</g>
<g id="Layer_1">
</g>
</svg>
