<?xml version="1.0" encoding="iso-8859-1"?>
<!-- Generator: Adobe Illustrator 19.2.1, SVG Export Plug-In . SVG Version: 6.00 Build 0)  -->
<svg version="1.1" xmlns="http://www.w3.org/2000/svg" xmlns:xlink="http://www.w3.org/1999/xlink" x="0px" y="0px"
	 viewBox="0 0 16.001 16" style="enable-background:new 0 0 16.001 16;" xml:space="preserve">
<g id="Layer_7">
	<path style="fill:#95CC29;" d="M12.224,9.202l0.988,2.001l2.208,0.321c0.205,0.03,0.287,0.282,0.139,0.426l-1.598,1.558
		l0.377,2.199c0.035,0.204-0.179,0.36-0.363,0.264L12,14.932l-1.975,1.038c-0.183,0.096-0.398-0.059-0.363-0.264l0.377-2.199
		L8.441,11.95c-0.148-0.145-0.066-0.397,0.139-0.426l2.208-0.321l0.988-2.001C11.868,9.016,12.132,9.016,12.224,9.202z"/>
	<g>
		<polyline style="fill:none;stroke:#666666;stroke-linecap:round;stroke-linejoin:round;stroke-miterlimit:10;" points="
			8.683,15.5 2.5,15.5 1.5,8.5 14.5,8.5 14.237,10.341 		"/>
		<path style="fill:none;stroke:#666666;stroke-linecap:round;stroke-linejoin:round;stroke-miterlimit:10;" d="M1.5,8.5
			c-0.551,0-1-0.449-1-1s0.449-1,1-1h13c0.551,0,1,0.449,1,1s-0.449,1-1,1H1.5z"/>
		
			<line style="fill:none;stroke:#666666;stroke-linecap:round;stroke-linejoin:round;stroke-miterlimit:10;" x1="1.5" y1="6.5" x2="5.793" y2="2.207"/>
		<circle style="fill:none;stroke:#666666;stroke-miterlimit:10;" cx="6.5" cy="1.5" r="1"/>
		
			<line style="fill:none;stroke:#666666;stroke-linecap:round;stroke-linejoin:round;stroke-miterlimit:10;" x1="14.5" y1="6.5" x2="10.207" y2="2.207"/>
		<circle style="fill:none;stroke:#666666;stroke-miterlimit:10;" cx="9.5" cy="1.5" r="1"/>
	</g>
	<rect x="0.001" y="0" style="fill:none;" width="16" height="16"/>
</g>
<g id="Layer_1">
</g>
</svg>
