<?xml version="1.0" encoding="iso-8859-1"?>
<!-- Generator: Adobe Illustrator 19.2.1, SVG Export Plug-In . SVG Version: 6.00 Build 0)  -->
<svg version="1.1" xmlns="http://www.w3.org/2000/svg" xmlns:xlink="http://www.w3.org/1999/xlink" x="0px" y="0px"
	 viewBox="0 0 16.001 16" style="enable-background:new 0 0 16.001 16;" xml:space="preserve">
<g id="Layer_8">
	<path style="fill:#95CC29;" d="M15,8H9C8.45,8,8,8.45,8,9v6c0,0.55,0.45,1,1,1h4h2c0.55,0,1-0.45,1-1v-2V9C16,8.45,15.55,8,15,8z
		 M15,12l-1-1l-2.5,2.5L10,12l-1,1V9h6V12z"/>
	<circle style="fill:#95CC29;" cx="10.5" cy="10.5" r="0.5"/>
	<g>
		<path style="fill:none;stroke:#666666;stroke-linejoin:round;stroke-miterlimit:10;" d="M15.387,7.038
			C15.22,6.718,14.885,6.5,14.5,6.5h-13c-0.552,0-1,0.448-1,1v5c0,0.552,0.448,1,1,1h1"/>
		<circle style="fill:#666666;" cx="3.5" cy="8.5" r="0.5"/>
		<path style="fill:none;stroke:#666666;stroke-linejoin:round;stroke-miterlimit:10;" d="M9.086,0.5H3.5c-0.552,0-1,0.448-1,1v5h11
			V4.914c0-0.265-0.105-0.52-0.293-0.707L9.793,0.793C9.605,0.605,9.351,0.5,9.086,0.5z"/>
		<path style="fill:none;stroke:#666666;stroke-linejoin:round;stroke-miterlimit:10;" d="M13.207,4.207L9.569,0.569
			C9.519,0.589,9.549,0.577,9.5,0.597V3.5c0,0.552,0.448,1,1,1h2.586C13.144,4.359,13.149,4.348,13.207,4.207z"/>
		<polyline style="fill:none;stroke:#666666;stroke-linejoin:round;stroke-miterlimit:10;" points="7,15.5 2.5,15.5 2.5,11.5 
			7,11.5 		"/>
	</g>
	<rect x="0.001" style="fill:none;" width="16" height="16"/>
</g>
<g id="Layer_1">
</g>
</svg>
