<?xml version="1.0" encoding="iso-8859-1"?>
<!-- Generator: Adobe Illustrator 19.2.1, SVG Export Plug-In . SVG Version: 6.00 Build 0)  -->
<svg version="1.1" xmlns="http://www.w3.org/2000/svg" xmlns:xlink="http://www.w3.org/1999/xlink" x="0px" y="0px"
	 viewBox="0 0 16.001 16" style="enable-background:new 0 0 16.001 16;" xml:space="preserve">
<g id="Layer_10">
	<path style="fill:#95CC29;" d="M8,14c0.128,0,0.256-0.049,0.354-0.146l2.985-2.985c0.704-0.704,0.876-1.839,0.294-2.647
		c-0.742-1.03-2.188-1.116-3.047-0.257L8,8.55L7.414,7.964C6.555,7.106,5.11,7.191,4.368,8.221
		c-0.582,0.808-0.411,1.943,0.294,2.647l2.985,2.985C7.744,13.951,7.872,14,8,14z"/>
	<g>
		<path style="fill:none;stroke:#666666;stroke-linecap:round;stroke-linejoin:round;stroke-miterlimit:10;" d="M14.5,15.5h-13
			c-0.552,0-1-0.448-1-1v-12c0-0.552,0.448-1,1-1h13c0.552,0,1,0.448,1,1v12C15.5,15.052,15.052,15.5,14.5,15.5z"/>
		
			<line style="fill:none;stroke:#666666;stroke-linecap:round;stroke-linejoin:round;stroke-miterlimit:10;" x1="0.5" y1="5.5" x2="15.5" y2="5.5"/>
		
			<line style="fill:none;stroke:#666666;stroke-linecap:round;stroke-linejoin:round;stroke-miterlimit:10;" x1="4.5" y1="3.5" x2="4.5" y2="0.5"/>
		
			<line style="fill:none;stroke:#666666;stroke-linecap:round;stroke-linejoin:round;stroke-miterlimit:10;" x1="11.5" y1="3.5" x2="11.5" y2="0.5"/>
	</g>
	<rect x="0.001" style="fill:none;" width="16" height="16"/>
</g>
<g id="Layer_1">
</g>
</svg>
