<?xml version="1.0" encoding="iso-8859-1"?>
<!-- Generator: Adobe Illustrator 19.2.1, SVG Export Plug-In . SVG Version: 6.00 Build 0)  -->
<svg version="1.1" xmlns="http://www.w3.org/2000/svg" xmlns:xlink="http://www.w3.org/1999/xlink" x="0px" y="0px"
	 viewBox="0 0 32 32" style="enable-background:new 0 0 32 32;" xml:space="preserve">
<g id="Layer_3">
	<path style="fill:#95CC29;" d="M24.999,14c-3.866,0-6.999,3.134-6.999,7c0,2.788,2.001,5.175,4.001,6.301V29
		c0,0.55,0.449,1,0.999,1c0.55,0,1-0.45,1-1c0,0.55,0.45,1,1,1c0.55,0,1-0.45,1-1c0,0.55,0.451,1,1.001,1C27.549,30,28,29.55,28,29
		v-1.699c2-1.126,3.999-3.513,3.999-6.301C31.999,17.134,28.864,14,24.999,14z M21.999,24c-1.104,0-2-0.896-2-2c0-1.105,0.896-2,2-2
		c1.105,0,2,0.895,2,2C23.999,23.104,23.103,24,21.999,24z M27.999,24c-1.104,0-2-0.896-2-2c0-1.105,0.896-2,2-2
		c1.105,0,2,0.895,2,2C29.999,23.104,29.103,24,27.999,24z"/>
	<path style="fill:#666666;" d="M13.877,27.193c0.583,0.584,1.357,0.88,2.121,0.879c0.764,0.001,1.538-0.295,2.121-0.879l0.26-0.26
		l-1.414-1.414l-0.26,0.26c-0.198,0.197-0.448,0.292-0.707,0.293c-0.259-0.001-0.509-0.096-0.707-0.293L3.996,14.484
		c-1.192-1.186-1.861-2.938-1.858-4.648c0-1.407,0.442-2.757,1.332-3.773C4.639,4.73,6.25,4.002,7.999,4
		C8.4,4,8.808,4.039,9.221,4.119c1.169,0.226,2.272,0.888,3.176,1.793l3.602,3.603l3.602-3.603c0.903-0.905,2.006-1.567,3.175-1.793
		C23.189,4.039,23.597,4,23.999,4c1.748,0.002,3.36,0.73,4.528,2.062c0.89,1.016,1.332,2.366,1.332,3.773
		c0.001,1.097-0.272,2.217-0.787,3.188l1.768,0.936c0.672-1.271,1.019-2.699,1.02-4.124c0-1.82-0.573-3.655-1.827-5.09
		C28.497,2.986,26.312,1.998,23.999,2c-0.531,0-1.068,0.051-1.604,0.156c-1.65,0.323-3.081,1.215-4.208,2.342l-2.188,2.188
		l-2.188-2.188c-1.127-1.127-2.558-2.019-4.208-2.342C9.066,2.051,8.529,2,7.999,2C5.685,1.998,3.5,2.986,1.965,4.745
		C0.711,6.18,0.137,8.016,0.138,9.835c0.003,2.214,0.836,4.448,2.444,6.063L13.877,27.193z"/>
	<rect style="fill:none;" width="32" height="32"/>
</g>
<g id="Layer_1">
</g>
</svg>
