<?xml version="1.0" encoding="iso-8859-1"?>
<!-- Generator: Adobe Illustrator 19.2.1, SVG Export Plug-In . SVG Version: 6.00 Build 0)  -->
<svg version="1.1" xmlns="http://www.w3.org/2000/svg" xmlns:xlink="http://www.w3.org/1999/xlink" x="0px" y="0px"
	 viewBox="0 0 32 32" style="enable-background:new 0 0 32 32;" xml:space="preserve">
<g id="Layer_14">
	<path style="fill:#95CC29;" d="M24.999,18c-3.866,0-7,3.134-7,7s3.134,7,7,7s7-3.134,7-7S28.864,18,24.999,18z M26,29
		c0,0.55-0.45,1-1,1c-0.55,0-1-0.45-1-1v-4c0-0.55,0.45-1,1-1c0.55,0,1,0.45,1,1V29z M24.999,22c-0.552,0-1-0.448-1-1
		c0-0.552,0.448-1,1-1c0.552,0,1,0.448,1,1C25.999,21.552,25.551,22,24.999,22z"/>
	<path style="fill:#666666;" d="M31.948,6.746c-0.045-0.168-0.118-0.328-0.242-0.453l-6-6C25.519,0.107,25.262,0,24.999,0h-18
		C6.735,0,6.478,0.107,6.291,0.293l-6,6C0.167,6.417,0.095,6.577,0.05,6.746C0.038,6.789,0.031,6.827,0.025,6.871
		C0.019,6.915,0,6.956,0,7v22c0,0.263,0.106,0.521,0.292,0.707C0.478,29.893,0.735,30,0.999,30H16v-2H2V8h28v10h2V7
		c0-0.044-0.021-0.085-0.026-0.129C31.968,6.827,31.959,6.789,31.948,6.746z M16,6H3.413l4-4H16V6z M18,6V2h6.584l4,4H18z"/>
	<rect style="fill:none;" width="32" height="32"/>
</g>
<g id="Layer_1">
</g>
</svg>
