<?xml version="1.0" encoding="iso-8859-1"?>
<!-- Generator: Adobe Illustrator 19.2.1, SVG Export Plug-In . SVG Version: 6.00 Build 0)  -->
<svg version="1.1" xmlns="http://www.w3.org/2000/svg" xmlns:xlink="http://www.w3.org/1999/xlink" x="0px" y="0px"
	 viewBox="0 0 32 32" style="enable-background:new 0 0 32 32;" xml:space="preserve">
<g id="Layer_15">
	<path style="fill:#95CC29;" d="M30.999,24h-1.072c-0.134-1.294-0.519-2.462-1.087-3.427l0.867-0.867
		c0.389-0.389,0.389-1.025,0-1.414s-1.025-0.389-1.414,0l-0.73,0.73C26.81,18.387,25.939,18,24.999,18
		c-0.941,0-1.811,0.387-2.564,1.022l-0.73-0.73c-0.389-0.389-1.025-0.389-1.414,0s-0.389,1.025,0,1.414l0.867,0.867
		c-0.568,0.965-0.953,2.133-1.087,3.427h-1.072c-0.55,0-1,0.45-1,1c0,0.55,0.45,1,1,1h1.072c0.134,1.294,0.519,2.462,1.087,3.427
		l-0.867,0.867c-0.389,0.389-0.389,1.025,0,1.414s1.025,0.389,1.414,0l0.73-0.73C23.187,31.613,24.058,32,24.999,32
		s1.811-0.387,2.564-1.022l0.73,0.73c0.389,0.389,1.025,0.389,1.414,0s0.389-1.025,0-1.414l-0.867-0.867
		c0.568-0.964,0.953-2.133,1.087-3.427h1.072c0.55,0,1-0.45,1-1C31.999,24.45,31.549,24,30.999,24z M21.999,25
		c0-0.347,0.025-0.68,0.066-1H24v5.668C23,28.98,21.999,27.256,21.999,25z M26,29.668V24h1.932c0.041,0.32,0.067,0.653,0.067,1
		C27.999,27.256,27,28.98,26,29.668z"/>
	<path style="fill:#666666;" d="M25.706,0.293C25.519,0.107,25.262,0,24.999,0h-2h-14h-8c-0.263,0-0.52,0.107-0.706,0.293
		C0.106,0.479,0,0.737,0,1v30c0,0.263,0.106,0.521,0.292,0.707C0.478,31.893,0.735,32,0.999,32h6H18v-2H8V18h10v-2H6.999
		c-0.263,0-0.52,0.107-0.706,0.293C6.106,16.479,6,16.737,6,17v13H2V2h6v9c0,0.263,0.106,0.521,0.292,0.707
		C8.478,11.893,8.735,12,8.999,12h14c0.263,0,0.522-0.107,0.708-0.293C23.893,11.521,24,11.263,24,11V2h0.584L30,7.414V16h2V7
		c0-0.263-0.107-0.521-0.294-0.707L25.706,0.293z M22,10H10V2h12V10z"/>
	<rect x="18" y="4" style="fill:#666666;" width="2" height="4"/>
	<rect style="fill:none;" width="32" height="32"/>
</g>
<g id="Layer_1">
</g>
</svg>
