<?xml version="1.0" encoding="iso-8859-1"?>
<!-- Generator: Adobe Illustrator 19.2.1, SVG Export Plug-In . SVG Version: 6.00 Build 0)  -->
<svg version="1.1" xmlns="http://www.w3.org/2000/svg" xmlns:xlink="http://www.w3.org/1999/xlink" x="0px" y="0px"
	 viewBox="0 0 32 32" style="enable-background:new 0 0 32 32;" xml:space="preserve">
<g id="Layer_17">
	<path style="fill:#95CC29;" d="M30.802,22.403L26.799,16.4c-0.4-0.533-1.2-0.533-1.6,0l-4.003,6.003
		c-0.927,1.236-1.388,2.842-1.123,4.557c0.382,2.466,2.381,4.513,4.839,4.944c3.792,0.665,7.087-2.235,7.087-5.905
		C31.999,24.651,31.553,23.405,30.802,22.403z M28.827,28.828C28.078,29.579,27,30.002,26,30v-2c1-0.002,1.028-0.204,1.412-0.586
		c0.381-0.383,0.585-0.874,0.586-1.414h2C30,27.062,29.578,28.079,28.827,28.828z"/>
	<path style="fill:#666666;" d="M2,23.816V25c0,1.657,1.341,2.999,2.999,3h2C8.656,27.999,10,26.657,10,25v-1h8v-2H9.999h-7
		C2.447,21.999,2,21.552,2,21v-8c0-0.552,0.447-0.999,0.999-1h26C29.55,12.001,30,12.448,30,13v5h2v-5
		c0-1.409-0.976-2.582-2.286-2.905l-2.781-6.952C26.174,1.245,24.335,0,22.29,0H9.707C7.662,0,5.824,1.245,5.064,3.143l-2.78,6.952
		C0.974,10.418,0,11.591,0,13v8C0,22.305,0,23.403,2,23.816z M4,24h4v1c0,0.552-0.45,0.999-1.001,1h-2C4.447,25.999,4,25.552,4,25
		V24z M6.921,3.886C7.377,2.747,8.48,2,9.707,2H22.29c1.227,0,2.33,0.747,2.785,1.886L27.521,10H4.476L6.921,3.886z"/>
	<path style="fill:#666666;" d="M6.999,14c-1.657,0.002-2.998,1.343-3,3c0.002,1.657,1.343,2.998,3,3c1.657-0.002,2.998-1.343,3-3
		C9.996,15.343,8.656,14.002,6.999,14z M6.998,18c-0.551-0.002-0.999-0.452-1-1.003C5.999,16.451,6.448,16,7,16
		c0.548,0,0.997,0.45,0.998,1.002C7.997,17.549,7.549,17.998,6.998,18z"/>
	<rect x="12" y="18" style="fill:#666666;" width="8" height="2"/>
	<rect style="fill:none;" width="32" height="32"/>
</g>
<g id="Layer_1">
</g>
</svg>
