<?xml version="1.0" encoding="iso-8859-1"?>
<!-- Generator: Adobe Illustrator 19.2.1, SVG Export Plug-In . SVG Version: 6.00 Build 0)  -->
<svg version="1.1" xmlns="http://www.w3.org/2000/svg" xmlns:xlink="http://www.w3.org/1999/xlink" x="0px" y="0px"
	 viewBox="0 0 32 32" style="enable-background:new 0 0 32 32;" xml:space="preserve">
<g id="Layer_18">
	<path style="fill:#95CC29;" d="M13.999,17c0.001-1.653,1.347-2.999,3-3c1.653,0.001,2.999,1.347,3,3c-0.002,3.4-4,2.365-4,6
		c0,0.552,0.448,1,1,1c0.552,0,1-0.448,1-1c0-0.605,0.363-1.151,0.922-1.384c1.825-0.762,3.079-2.56,3.078-4.616
		c0-1.377-0.563-2.632-1.466-3.534C19.631,12.563,18.375,12,16.999,12c-2.759-0.001-5.001,2.246-5,5c0,0.552,0.448,1,1,1
		C13.551,18,13.999,17.552,13.999,17z"/>
	<circle style="fill:#95CC29;" cx="16.999" cy="27" r="1"/>
	<path style="fill:#666666;" d="M16.999,0c-0.263,0-0.521,0.107-0.707,0.293L6.878,9.707C6.315,10.27,6,11.033,6,11.828V29
		c0,1.657,1.341,2.999,2.999,3h16C26.656,31.999,28,30.657,28,29V11.828c0-0.796-0.317-1.559-0.88-2.121l-9.414-9.414
		C17.52,0.107,17.262,0,16.999,0z M26,11.828V29c0,0.552-0.45,0.999-1.001,1h-16C8.447,29.999,8,29.552,8,29V11.828
		c0-0.265,0.105-0.52,0.292-0.707l8.707-8.707l8.708,8.707C25.894,11.309,26,11.563,26,11.828z"/>
	<circle style="fill:#666666;" cx="16.999" cy="7" r="1"/>
	<rect style="fill:none;" width="32" height="32"/>
</g>
<g id="Layer_1">
</g>
</svg>
