<?xml version="1.0" encoding="iso-8859-1"?>
<!-- Generator: Adobe Illustrator 19.2.1, SVG Export Plug-In . SVG Version: 6.00 Build 0)  -->
<svg version="1.1" xmlns="http://www.w3.org/2000/svg" xmlns:xlink="http://www.w3.org/1999/xlink" x="0px" y="0px"
	 viewBox="0 0 32 32" style="enable-background:new 0 0 32 32;" xml:space="preserve">
<g id="Layer_20">
	<path style="fill:#95CC29;" d="M31.201,18.019L24.271,16h-0.544l-6.93,2.019c-0.426,0.123-0.718,0.543-0.718,0.99
		c0,4.211-1.083,9.99,7.648,12.99h0.544c8.731-3,7.648-8.793,7.648-12.99C31.919,18.563,31.626,18.142,31.201,18.019z M24,30h-0.001
		c-6.802-2-5.939-6.531-5.939-10.217L24,18.04V30z"/>
	<path style="fill:#666666;" d="M2.526,14.49c2.498,0.939,6.67,1.503,11.473,1.51c3.654-0.001,6.959-0.338,9.417-0.904
		c1.232-0.286,2.249-0.622,3.04-1.05c0.026-0.014,0.047-0.031,0.072-0.046H28V4c0-0.143-0.032-0.277-0.086-0.4
		c-0.084-0.336-0.228-0.644-0.431-0.869c-0.504-0.553-1.174-0.896-2.011-1.222C22.974,0.57,18.801,0.007,13.999,0
		c-3.654,0.001-6.959,0.338-9.417,0.904c-1.232,0.286-2.25,0.622-3.04,1.05c-0.395,0.217-0.74,0.457-1.027,0.777
		C0.312,2.957,0.169,3.264,0.085,3.6C0.031,3.723,0,3.858,0,4v24c0,0.511,0.233,0.955,0.515,1.268
		c0.504,0.553,1.173,0.896,2.01,1.222c2.498,0.939,6.67,1.503,11.473,1.51c1.425,0,2.797-0.052,4.087-0.148l-0.149-1.994
		C16.699,29.95,15.374,30,13.999,30c-3.526,0.001-6.721-0.333-8.968-0.853c-1.12-0.257-2.007-0.568-2.532-0.857
		c-0.262-0.141-0.428-0.278-0.488-0.349L2,27.926v-5.68c0,0.08,0.332,0.169,0.527,0.245C5.025,23.43,10,23.993,14,24v-2
		c-4,0.001-6.721-0.333-8.968-0.853c-1.12-0.257-2.007-0.568-2.532-0.857c-0.262-0.141-0.428-0.278-0.488-0.349L2,19.926v-5.68
		C2,14.326,2.331,14.415,2.526,14.49z M3.012,3.468C4.985,2.636,9.205,1.991,13.999,2c3.526-0.001,6.721,0.333,8.968,0.853
		c1.12,0.257,2.007,0.568,2.532,0.857c0.213,0.115,0.344,0.217,0.424,0.293c-0.146,0.126-0.462,0.342-0.938,0.529
		C23.012,5.364,18.792,6.009,13.999,6c-3.526,0.001-6.721-0.333-8.968-0.853C3.911,4.89,3.024,4.579,2.499,4.29
		C2.286,4.175,2.156,4.073,2.075,3.997C2.22,3.871,2.537,3.656,3.012,3.468z M2,6.245c0,0.08,0.331,0.169,0.526,0.245
		C5.024,7.43,9.196,7.993,13.999,8c3.654-0.001,6.96-0.338,9.418-0.904C24.441,6.858,26,6.572,26,6.241v5.682
		c0,0.078-0.398,0.365-1.015,0.609c-1.972,0.831-6.193,1.477-10.986,1.468c-3.526,0.001-6.721-0.333-8.968-0.853
		c-1.12-0.257-2.007-0.568-2.532-0.857c-0.262-0.141-0.428-0.278-0.488-0.349L2,11.926V6.245z"/>
	<rect style="fill:none;" width="32" height="32"/>
</g>
<g id="Layer_1">
</g>
</svg>
