<?xml version="1.0" encoding="iso-8859-1"?>
<!-- Generator: Adobe Illustrator 19.2.1, SVG Export Plug-In . SVG Version: 6.00 Build 0)  -->
<svg version="1.1" xmlns="http://www.w3.org/2000/svg" xmlns:xlink="http://www.w3.org/1999/xlink" x="0px" y="0px"
	 viewBox="0 0 32.001 32" style="enable-background:new 0 0 32.001 32;" xml:space="preserve">
<g id="Layer_22">
	<path style="fill:#95CC29;" d="M18.999,14c-0.808,0-1.539,0.323-2.078,0.843l-2.959-1.479L13.999,13l-0.037-0.364l2.959-1.479
		c0.539,0.52,1.27,0.843,2.078,0.843c1.657,0,3-1.343,3-3s-1.343-3-3-3s-3,1.343-3,3l0.037,0.364l-2.959,1.479
		C12.538,10.323,11.807,10,10.999,10c-1.657,0-3,1.343-3,3s1.343,3,3,3c0.808,0,1.539-0.323,2.078-0.843l2.959,1.479L15.999,17
		c0,1.657,1.343,3,3,3s3-1.343,3-3S20.656,14,18.999,14z"/>
	<path style="fill:#666666;" d="M6.617,29.924c0.374,0.155,0.804,0.069,1.09-0.217l4.171-4.171C13.198,25.823,14.572,26,15.999,26
		c4.353-0.001,8.316-1.412,11.226-3.738C30.132,19.943,32,16.658,31.999,13C32,9.342,30.132,6.057,27.226,3.738
		C24.316,1.412,20.352,0.001,15.999,0C11.646,0.001,7.683,1.412,4.773,3.738C1.867,6.057-0.001,9.342,0,13
		c0.002,4.147,2,7.766,6,10.107V29C6,29.404,6.243,29.769,6.617,29.924z M2,13C2,10.042,3.496,7.326,6.022,5.3
		c2.522-2.02,6.058-3.301,9.977-3.3c3.919-0.001,7.455,1.28,9.977,3.3c2.526,2.026,4.022,4.742,4.023,7.7
		c-0.001,2.958-1.497,5.674-4.023,7.7c-2.522,2.02-6.058,3.301-9.977,3.3c-1.471,0-2.887-0.18-4.217-0.511
		c-0.34-0.085-0.701,0.015-0.949,0.263L8,26.586v-4.009c0-0.351-0.184-0.675-0.484-0.856C4.108,19.659,1.998,16.492,2,13z"/>
	<rect x="0.001" style="fill:none;" width="32" height="32"/>
</g>
<g id="Layer_1">
</g>
</svg>
