<?xml version="1.0" encoding="iso-8859-1"?>
<!-- Generator: Adobe Illustrator 19.2.1, SVG Export Plug-In . SVG Version: 6.00 Build 0)  -->
<svg version="1.1" xmlns="http://www.w3.org/2000/svg" xmlns:xlink="http://www.w3.org/1999/xlink" x="0px" y="0px"
	 viewBox="0 0 32 32" style="enable-background:new 0 0 32 32;" xml:space="preserve">
<g id="Layer_24">
	<circle style="fill:#95CC29;" cx="17.999" cy="14" r="4"/>
	<path style="fill:#95CC29;" d="M24,26H12v-2c0-3.314,2.686-6,6-6s6,2.686,6,6V26z"/>
	<path style="fill:#666666;" d="M4.999,0C3.342,0.004,2,1.343,2,3v26c0,1.657,1.342,2.996,2.999,3h22C28.655,31.996,30,30.657,30,29
		V7V3c0-1.657-1.345-2.996-3.001-3H4.999z M6,30H4.999C4.455,29.999,4,29.543,4,29V5.815C4,5.927,4.646,5.999,4.999,6H6V30z M28,29
		c0,0.543-0.458,0.999-1.001,1H8V6h18.999C27.55,6.001,28,6.448,28,7V29z M28,3v1.184C28,4.072,27.351,4,26.999,4h-22
		C4.455,3.999,4,3.543,3.999,3c0.001-0.543,0.457-0.999,1-1h22C27.542,2.001,28,2.457,28,3z"/>
	<rect style="fill:none;" width="32" height="32"/>
</g>
<g id="Layer_1">
</g>
</svg>
