<?xml version="1.0" encoding="iso-8859-1"?>
<!-- Generator: Adobe Illustrator 19.2.1, SVG Export Plug-In . SVG Version: 6.00 Build 0)  -->
<svg version="1.1" xmlns="http://www.w3.org/2000/svg" xmlns:xlink="http://www.w3.org/1999/xlink" x="0px" y="0px"
	 viewBox="0 0 32.001 32" style="enable-background:new 0 0 32.001 32;" xml:space="preserve">
<g id="Layer_28">
	<path style="fill:#95CC29;" d="M21.671,17.361C20.707,17.522,20,18.356,20,19.334v4.306v4.483C20,28.048,19.353,28,19,28
		c-1.657,0-3,0.895-3,2s1.343,2,3,2s3-0.895,3-2v-8.694l8-1.333v6.149C30,26.048,29.353,26,29,26c-1.657,0-3,0.895-3,2s1.343,2,3,2
		s3-0.895,3-2v-6.36V18c0-1.236-1.11-2.176-2.329-1.973L21.671,17.361z"/>
	<path style="fill:#666666;" d="M16,0C7.174,0.002,0.002,7.174,0,16c0.003,8.146,6.109,14.882,13.992,15.875l0.25-1.984
		C7.354,29.025,1.997,23.122,2,16c0-3.862,1.568-7.356,4.105-9.895C8.644,3.568,12.138,2,16,2
		c7.116-0.003,13.014,5.344,13.888,12.223l1.984-0.252C30.87,6.098,24.138,0.003,16,0z"/>
	<path style="fill:#666666;" d="M17,7c0-0.552-0.448-1-1-1c-5.517,0.002-9.998,4.483-10,10c0,0.552,0.448,1,1,1s1-0.448,1-1
		c0-2.207,0.895-4.202,2.346-5.654C11.798,8.895,13.792,8,16,8C16.552,8,17,7.552,17,7z"/>
	<path style="fill:#666666;" d="M12.684,18.236c0.144,0.213,0.308,0.411,0.488,0.592c0.18,0.181,0.379,0.344,0.592,0.488
		c0.426,0.288,0.909,0.495,1.43,0.602C15.455,19.972,15.724,20,16,20c0.276,0,0.545-0.028,0.806-0.082
		c0.521-0.107,1.005-0.315,1.43-0.602c0.213-0.144,0.411-0.308,0.592-0.488c0.181-0.18,0.344-0.379,0.488-0.592
		c0.288-0.426,0.495-0.909,0.602-1.43C19.972,16.545,20,16.276,20,16c0-0.276-0.028-0.545-0.082-0.806
		c-0.107-0.521-0.315-1.005-0.602-1.43c-0.144-0.213-0.308-0.411-0.488-0.592c-0.18-0.181-0.379-0.344-0.592-0.488
		c-0.426-0.288-0.909-0.495-1.43-0.602C16.545,12.028,16.276,12,16,12c-0.276,0-0.545,0.028-0.806,0.082
		c-0.521,0.107-1.005,0.315-1.43,0.602c-0.213,0.144-0.411,0.308-0.592,0.488c-0.181,0.18-0.344,0.379-0.488,0.592
		c-0.288,0.426-0.495,0.909-0.602,1.43C12.028,15.455,12,15.724,12,16c0,0.276,0.028,0.545,0.082,0.806
		C12.189,17.326,12.397,17.81,12.684,18.236z M16,14c1.1,0.002,1.998,0.9,2,2c-0.002,1.1-0.9,1.998-2,2c-1.1-0.002-1.998-0.9-2-2
		C14.002,14.9,14.9,14.002,16,14z"/>
	<rect x="0.001" style="fill:none;" width="32" height="32"/>
</g>
<g id="Layer_1">
</g>
</svg>
