<?xml version="1.0" encoding="iso-8859-1"?>
<!-- Generator: Adobe Illustrator 19.2.1, SVG Export Plug-In . SVG Version: 6.00 Build 0)  -->
<svg version="1.1" xmlns="http://www.w3.org/2000/svg" xmlns:xlink="http://www.w3.org/1999/xlink" x="0px" y="0px"
	 viewBox="0 0 32 32" style="enable-background:new 0 0 32 32;" xml:space="preserve">
<g id="Layer_35">
	<path style="fill:#95CC29;" d="M20.049,20.05c-2.734,2.734-2.734,7.166,0,9.9c2.734,2.734,7.166,2.734,9.899,0
		c2.734-2.734,2.734-7.166,0-9.9S22.782,17.317,20.049,20.05z M27.827,23.586L26.413,25l1.414,1.414
		c0.391,0.391,0.391,1.024,0,1.414c-0.39,0.391-1.024,0.391-1.414,0l-1.414-1.414l-1.414,1.414c-0.39,0.391-1.024,0.391-1.414,0
		c-0.391-0.391-0.39-1.024,0-1.414L23.584,25l-1.414-1.414c-0.391-0.391-0.39-1.024,0-1.414c0.39-0.391,1.024-0.391,1.414,0
		l1.414,1.414l1.414-1.414c0.39-0.391,1.024-0.391,1.414,0C28.217,22.562,28.217,23.195,27.827,23.586z"/>
	<path style="fill:#666666;" d="M20.149,0c0,0-0.074,0-0.074,0H20v0.236V0l0,0c0,0,0,0.235,0,0.236c0-0.155-0.692-0.111-1.075-0.111
		c-0.78,0-1.511,0.364-2.085,0.938L9.998,8h-7C1.342,8,0,9.342,0,11v10c0,1.658,1.342,3,2.999,3h7l6.879,6.879l0.033,0.032
		l0.136,0.124l1.348-1.477l-0.119-0.109l-7.156-7.156C10.933,22.107,10.676,22,10.413,22H10V10h0.413
		c0.263,0,0.521-0.107,0.707-0.293l7.172-7.172c0.192-0.192,0.446-0.451,0.707-0.452L19.379,2h0.003C19.754,2,20,2.838,20,3.242V16
		h2V3.242C22,2.03,21.27,1,20.149,0z M8,22H2.999C2.446,21.999,2,21.553,2,21V11c0-0.553,0.446-0.999,0.999-1H8V22z"/>
	<rect style="fill:none;" width="32" height="32"/>
</g>
<g id="Layer_1">
</g>
</svg>
