<?xml version="1.0" encoding="iso-8859-1"?>
<!-- Generator: Adobe Illustrator 19.2.1, SVG Export Plug-In . SVG Version: 6.00 Build 0)  -->
<svg version="1.1" xmlns="http://www.w3.org/2000/svg" xmlns:xlink="http://www.w3.org/1999/xlink" x="0px" y="0px"
	 viewBox="0 0 32 32" style="enable-background:new 0 0 32 32;" xml:space="preserve">
<g id="Layer_37">
	<path style="fill:#95CC29;" d="M24.999,18c-3.866,0-7,3.134-7,7s3.134,7,7,7s7-3.134,7-7S28.864,18,24.999,18z M27.999,26H26v2
		c0,0.552-0.448,1-1,1c-0.552,0-1-0.448-1-1v-2h-2.001c-0.552,0-1-0.448-1-1c0-0.552,0.448-1,1-1H24v-2c0-0.552,0.448-1,1-1
		s1,0.448,1,1v2h1.999c0.552,0,1,0.448,1,1C28.999,25.552,28.551,26,27.999,26z"/>
	<path style="fill:#666666;" d="M30.205,1.792c-1.159-1.16-2.688-1.743-4.207-1.742c-1.519-0.001-3.048,0.583-4.207,1.743l-4,4
		c-1.16,1.159-1.744,2.688-1.743,4.207c-0.001,1.202,0.379,2.402,1.107,3.429l-3.728,3.728c-1.026-0.727-2.226-1.108-3.429-1.107
		c-1.519-0.001-3.048,0.583-4.207,1.743l-4,4C0.632,22.952,0.048,24.481,0.049,26c-0.001,1.519,0.583,3.048,1.743,4.207
		c1.159,1.16,2.688,1.744,4.207,1.743c1.519,0.001,3.048-0.583,4.207-1.743l4-4c1.16-1.159,1.744-2.688,1.743-4.207
		c0.001-1.202-0.379-2.402-1.107-3.429l3.728-3.728c1.026,0.727,2.226,1.108,3.429,1.107c1.519,0.001,3.048-0.583,4.207-1.743l4-4
		c1.16-1.159,1.744-2.688,1.743-4.207C31.949,4.481,31.365,2.952,30.205,1.792C30.205,1.793,30.205,1.793,30.205,1.792z
		 M12.791,24.793l-4,4c-0.774,0.773-1.779,1.156-2.793,1.157c-1.014-0.001-2.019-0.384-2.793-1.157
		C2.432,28.019,2.05,27.014,2.049,26c0.001-1.014,0.384-2.019,1.157-2.793l4-4c0.774-0.773,1.779-1.156,2.793-1.157
		c0.691,0.001,1.372,0.193,1.984,0.551l-1.692,1.692c-0.391,0.391-0.391,1.024,0,1.414c0.391,0.391,1.024,0.391,1.414,0l1.692-1.692
		c0.358,0.612,0.55,1.293,0.551,1.984C13.947,23.014,13.565,24.019,12.791,24.793z M28.791,8.793l-4,4
		c-0.774,0.773-1.779,1.156-2.793,1.157c-0.691-0.001-1.372-0.193-1.984-0.551l1.692-1.692c0.391-0.391,0.391-1.024,0-1.414
		c-0.391-0.391-1.024-0.391-1.414,0L18.6,11.984c-0.358-0.612-0.55-1.293-0.551-1.984c0.001-1.014,0.384-2.019,1.157-2.793l4-4
		c0.774-0.773,1.779-1.156,2.793-1.157c1.014,0.001,2.019,0.384,2.793,1.157C29.565,3.981,29.947,4.986,29.948,6
		C29.947,7.014,29.565,8.019,28.791,8.793z"/>
	<rect style="fill:none;" width="32" height="32"/>
</g>
<g id="Layer_1">
</g>
</svg>
