<?xml version="1.0" encoding="iso-8859-1"?>
<!-- Generator: Adobe Illustrator 19.2.1, SVG Export Plug-In . SVG Version: 6.00 Build 0)  -->
<svg version="1.1" xmlns="http://www.w3.org/2000/svg" xmlns:xlink="http://www.w3.org/1999/xlink" x="0px" y="0px"
	 viewBox="0 0 32 32" style="enable-background:new 0 0 32 32;" xml:space="preserve">
<g id="Layer_41">
	<path style="fill:#95CC29;" d="M23.999,16c-4.418,0-8,3.582-8,8c0,4.418,3.582,8,8,8s8-3.582,8-8
		C31.999,19.582,28.417,16,23.999,16z M22,28v-8l6,4L22,28z"/>
	<path style="fill:#666666;" d="M31.999,3c-0.001-1.657-1.343-2.999-3-3h-26C1.341,0.001,0,1.343,0,3v26
		c0,1.657,1.341,2.999,2.999,3H16v-2H2.999C2.447,29.999,2,29.552,2,29V10h28v6h2V3L31.999,3C31.999,3,31.999,3,31.999,3z M2,3
		c0-0.552,0.447-0.999,0.999-1h3.586L2,6.586V3z M3.413,8l6-6h5.172l-6,6H3.413z M11.413,8l6-6h5.172l-6,6H11.413z M19.413,8l6-6
		h3.586c0.43,0.001,0.788,0.275,0.93,0.656L24.584,8H19.413z M30,8h-2.587L30,5.414V8z"/>
	<rect style="fill:none;" width="32" height="32"/>
</g>
<g id="Layer_1">
</g>
</svg>
