<?xml version="1.0" encoding="iso-8859-1"?>
<!-- Generator: Adobe Illustrator 19.2.1, SVG Export Plug-In . SVG Version: 6.00 Build 0)  -->
<svg version="1.1" xmlns="http://www.w3.org/2000/svg" xmlns:xlink="http://www.w3.org/1999/xlink" x="0px" y="0px"
	 viewBox="0 0 32 32" style="enable-background:new 0 0 32 32;" xml:space="preserve">
<g id="Layer_7">
	<path style="fill:#95CC29;" d="M22.07,16c0-0.374-0.045-0.736-0.11-1.091l2.038-1.177l-2-3.464l-2.089,1.186
		c-0.55-0.469-0.91-0.839-1.91-1.086V8h-4v2.367c-1,0.247-1.289,0.617-1.839,1.086l-2.036-1.186l-1.991,3.464l2.043,1.177
		c-0.065,0.355-0.108,0.717-0.108,1.091s0.046,0.736,0.111,1.091l-2.038,1.177l2,3.464l2.019-1.186
		C12.711,21.016,13,21.385,14,21.633V24h4v-2.367c1-0.247,1.359-0.617,1.91-1.086l2.071,1.186l2.009-3.464l-2.034-1.177
		C22.021,16.736,22.07,16.374,22.07,16z M16.07,18c-1.104,0-2-0.896-2-2c0-1.105,0.896-2,2-2c1.105,0,2,0.895,2,2
		C18.07,17.104,17.175,18,16.07,18z"/>
	<path style="fill:#666666;" d="M15.704,31.956c0.191,0.059,0.397,0.059,0.588,0c6.039-1.851,9.597-4.464,11.55-7.821
		c1.948-3.352,2.25-7.236,2.254-11.537c0-2.388-0.099-4.919-0.098-7.598c0-0.438-0.287-0.827-0.706-0.956l-13-4
		c-0.191-0.059-0.397-0.059-0.588,0l-13,4C2.286,4.173,1.999,4.562,1.999,5c0,2.671-0.096,5.195-0.097,7.575
		c0.004,4.313,0.304,8.202,2.251,11.557C6.106,27.491,9.663,30.104,15.704,31.956z M3.989,5.741l12.009-3.695l12.009,3.695
		c0.015,2.438,0.089,4.743,0.089,6.857c0.004,4.221-0.335,7.72-1.982,10.529c-1.612,2.755-4.542,5.045-10.117,6.817
		c-5.577-1.773-8.506-4.062-10.117-6.819c-1.646-2.811-1.984-6.316-1.979-10.55C3.902,10.469,3.974,8.172,3.989,5.741z"/>
	<rect style="fill:none;" width="32" height="32"/>
</g>
<g id="Layer_1">
</g>
</svg>
