<?xml version="1.0" encoding="iso-8859-1"?>
<!-- Generator: Adobe Illustrator 19.2.1, SVG Export Plug-In . SVG Version: 6.00 Build 0)  -->
<svg version="1.1" xmlns="http://www.w3.org/2000/svg" xmlns:xlink="http://www.w3.org/1999/xlink" x="0px" y="0px"
	 viewBox="0 0 32.001 32" style="enable-background:new 0 0 32.001 32;" xml:space="preserve">
<g id="Layer_8">
	<path style="fill:#95CC29;" d="M24.448,18.404l1.975,4.002l4.417,0.642c0.41,0.06,0.574,0.564,0.277,0.853l-3.196,3.115
		l0.754,4.399c0.07,0.408-0.359,0.72-0.725,0.527L24,29.865l-3.95,2.077c-0.367,0.193-0.796-0.119-0.725-0.527l0.754-4.399
		l-3.196-3.115c-0.297-0.289-0.133-0.793,0.277-0.853l4.417-0.642l1.975-4.002C23.735,18.032,24.265,18.032,24.448,18.404z"/>
	<path style="fill:#666666;" d="M2.111,17.85L4.01,31.141C4.08,31.634,4.502,32,5,32h12.366c0.552,0,1-0.448,1-1s-0.448-1-1-1H5.867
		L4.153,18h23.694l-0.363,2.542c-0.078,0.547,0.302,1.053,0.849,1.131c0.547,0.078,1.053-0.302,1.131-0.849l0.425-2.974
		C31.108,17.469,31.998,16.345,32,15c-0.002-1.499-1.103-2.729-2.539-2.953L21.7,4.286C21.887,3.895,22,3.462,22,3
		c-0.001-1.657-1.343-2.999-3-3c-1.657,0.001-2.999,1.343-3,3c0.001,1.657,1.343,2.999,3,3c0.462,0,0.895-0.113,1.286-0.3l6.3,6.3
		H5.414l6.3-6.3C12.105,5.887,12.538,6,13,6c1.657-0.001,2.999-1.343,3-3c-0.001-1.657-1.343-2.999-3-3
		c-1.657,0.001-2.999,1.343-3,3c0,0.462,0.113,0.895,0.3,1.286l-7.761,7.761C1.103,12.271,0.002,13.501,0,15
		C0.002,16.345,0.892,17.469,2.111,17.85z M19,4c-0.552-0.001-0.999-0.448-1-1c0.001-0.552,0.448-0.999,1-1
		c0.552,0.001,0.999,0.448,1,1C19.999,3.552,19.552,3.999,19,4z M13,2c0.552,0.001,0.999,0.448,1,1c-0.001,0.552-0.448,0.999-1,1
		c-0.552-0.001-0.999-0.448-1-1C12.001,2.448,12.448,2.001,13,2z M3,14h26c0.548,0,0.999,0.452,1,1c-0.001,0.548-0.452,1-1,1H3
		c-0.548,0-0.999-0.452-1-1C2.001,14.452,2.452,14,3,14z"/>
	<rect x="0.001" y="0" style="fill:none;" width="32" height="32"/>
</g>
<g id="Layer_1">
</g>
</svg>
