<?xml version="1.0" encoding="iso-8859-1"?>
<!-- Generator: Adobe Illustrator 19.2.1, SVG Export Plug-In . SVG Version: 6.00 Build 0)  -->
<svg version="1.1" xmlns="http://www.w3.org/2000/svg" xmlns:xlink="http://www.w3.org/1999/xlink" x="0px" y="0px"
	 viewBox="0 0 32 32" style="enable-background:new 0 0 32 32;" xml:space="preserve">
<g id="Layer_9">
	<path style="fill:#95CC29;" d="M29.999,16h-12C16.899,16,16,16.9,16,18v12c0,1.1,0.899,2,1.999,2h8h4c1.1,0,2.001-0.9,2.001-2v-4
		v-8C32,16.9,31.099,16,29.999,16z M30,24l-2.001-2l-5,5l-2.999-3L18,26v-8h12V24z"/>
	<circle style="fill:#95CC29;" cx="20.999" cy="21" r="1"/>
	<path style="fill:#666666;" d="M2.999,28H4v3c0,0.263,0.106,0.521,0.292,0.707C4.478,31.893,4.735,32,4.999,32H14v-2H6v-6h8v-2
		H4.999c-0.263,0-0.52,0.107-0.706,0.293C4.106,22.479,4,22.737,4,23v3H2.999C2.447,25.999,2,25.552,2,25V15
		c0-0.552,0.447-0.999,0.999-1h2h22h2c0.387-0.001,0.718,0.218,0.887,0.538l1.773-0.926c-0.499-0.957-1.505-1.611-2.66-1.612H28
		V9.828c0-0.796-0.317-1.559-0.879-2.121L19.843,0.43c-0.189-0.189-0.442-0.253-0.7-0.255C18.832,0.068,18.506,0,18.17,0H6.999
		C5.341,0.001,4,1.343,4,3v9H2.999C1.341,12.001,0,13.343,0,15v10C0,26.657,1.341,27.999,2.999,28z M20,3.414L24.584,8h-3.586
		C20.447,7.999,20,7.552,20,7V3.414z M6,3c0-0.552,0.447-0.999,0.999-1H18v5c0,1.657,1.341,2.999,2.999,3H26v2H6V3z"/>
	<circle style="fill:#666666;" cx="6.999" cy="17" r="1"/>
	<rect style="fill:none;" width="32" height="32"/>
</g>
<g id="Layer_1">
</g>
</svg>
