<?xml version="1.0" encoding="iso-8859-1"?>
<!-- Generator: Adobe Illustrator 19.2.1, SVG Export Plug-In . SVG Version: 6.00 Build 0)  -->
<svg version="1.1" xmlns="http://www.w3.org/2000/svg" xmlns:xlink="http://www.w3.org/1999/xlink" x="0px" y="0px"
	 viewBox="0 0 32 32" style="enable-background:new 0 0 32 32;" xml:space="preserve">
<g id="Layer_10">
	<path style="fill:#95CC29;" d="M31.731,29l-6.928-12c-0.376-0.657-1.072-1.006-1.732-1c-0.66-0.006-1.356,0.343-1.732,1h0l-7.07,12
		l0,0c-0.182,0.313-0.271,0.663-0.27,0.999c0.001,0.529,0.208,1.02,0.56,1.389C14.908,31.756,15.431,32,16,32h13.999
		c0.569,0,1.092-0.244,1.442-0.613c0.352-0.369,0.559-0.859,0.56-1.389C32.001,29.663,31.912,29.313,31.731,29z M23.07,30.001
		c-0.552,0-1-0.448-1-1s0.448-1,1-1s1,0.448,1,1S23.623,30.001,23.07,30.001z M24,25.001c0,0.55-0.45,1-1,1s-1-0.45-1-1v-4
		c0-0.55,0.45-1,1-1s1,0.45,1,1V25.001z"/>
	<path style="fill:#666666;" d="M2.999,32H12v-2H2.999C2.447,29.999,2,29.552,2,29v-5h12v-2H2V10h18v4h2V3
		c0-1.657-1.344-2.999-3.001-3h-16C1.341,0.001,0,1.343,0,3v26C0,30.657,1.341,31.999,2.999,32z M2,3c0-0.552,0.447-0.999,0.999-1
		h16C19.55,2.001,20,2.448,20,3v5H2V3z"/>
	<circle style="fill:#666666;" cx="10.999" cy="27" r="1"/>
	<rect x="8" y="4" style="fill:#666666;" width="6" height="2"/>
	<rect style="fill:none;" width="32" height="32"/>
</g>
<g id="Layer_1">
</g>
</svg>
